<?xml version="1.0" encoding="UTF-8" standalone="no"?>
<!DOCTYPE svg PUBLIC "-//W3C//DTD SVG 1.1//EN"
 "http://www.w3.org/Graphics/SVG/1.1/DTD/svg11.dtd">
<!-- Generated by graphviz version 2.50.0 (20211204.2007)
 -->
<!-- Title: dependency&#45;cruiser output Pages: 1 -->
<svg width="401pt" height="220pt"
 viewBox="0.00 0.00 401.00 220.00" xmlns="http://www.w3.org/2000/svg" xmlns:xlink="http://www.w3.org/1999/xlink">
<g id="graph0" class="graph" transform="scale(1 1) rotate(0) translate(4 216)">
<title>dependency&#45;cruiser output</title>
<polygon fill="white" stroke="transparent" points="-4,4 -4,-216 397,-216 397,4 -4,4"/>
<g id="clust1" class="cluster">
<title>cluster_src</title>
<path fill="#ffffff" stroke="black" stroke-width="2" d="M20,-8C20,-8 373,-8 373,-8 379,-8 385,-14 385,-20 385,-20 385,-192 385,-192 385,-198 379,-204 373,-204 373,-204 20,-204 20,-204 14,-204 8,-198 8,-192 8,-192 8,-20 8,-20 8,-14 14,-8 20,-8"/>
<text text-anchor="middle" x="196.5" y="-192.8" font-family="Helvetica,sans-Serif" font-weight="bold" font-size="9.00">src</text>
</g>
<!-- src/ThreeBCF.ts -->
<g id="node1" class="node">
<title>src/ThreeBCF.ts</title>
<g id="a_node1"><a xlink:href="src/ThreeBCF.ts" xlink:title="ThreeBCF.ts">
<path fill="#ddfeff" stroke="black" d="M224,-76C224,-76 168,-76 168,-76 165,-76 162,-73 162,-70 162,-70 162,-64 162,-64 162,-61 165,-58 168,-58 168,-58 224,-58 224,-58 227,-58 230,-61 230,-64 230,-64 230,-70 230,-70 230,-73 227,-76 224,-76"/>
<text text-anchor="start" x="170" y="-64.8" font-family="Helvetica,sans-Serif" font-size="9.00">ThreeBCF.ts</text>
</a>
</g>
</g>
<!-- src/types.ts -->
<g id="node2" class="node">
<title>src/types.ts</title>
<g id="a_node2"><a xlink:href="src/types.ts" xlink:title="types.ts">
<path fill="#ddfeff" stroke="black" d="M292,-120C292,-120 250,-120 250,-120 247,-120 244,-117 244,-114 244,-114 244,-108 244,-108 244,-105 247,-102 250,-102 250,-102 292,-102 292,-102 295,-102 298,-105 298,-108 298,-108 298,-114 298,-114 298,-117 295,-120 292,-120"/>
<text text-anchor="start" x="255.5" y="-108.8" font-family="Helvetica,sans-Serif" font-size="9.00">types.ts</text>
</a>
</g>
</g>
<!-- src/ThreeBCF.ts&#45;&gt;src/types.ts -->
<g id="edge1" class="edge">
<title>src/ThreeBCF.ts&#45;&gt;src/types.ts</title>
<path fill="none" stroke="#000000" stroke-width="2" stroke-opacity="0.200000" d="M227,-76.1C227,-88.18 227,-108 227,-108 227,-108 237.89,-108 237.89,-108"/>
<polygon fill="#000000" fill-opacity="0.200000" stroke="#000000" stroke-width="2" stroke-opacity="0.200000" points="237.89,-110.1 243.89,-108 237.89,-105.9 237.89,-110.1"/>
</g>
<!-- src/version.ts -->
<g id="node3" class="node">
<title>src/version.ts</title>
<g id="a_node3"><a xlink:href="src/version.ts" xlink:title="version.ts">
<path fill="#ddfeff" stroke="black" d="M293,-76C293,-76 249,-76 249,-76 246,-76 243,-73 243,-70 243,-70 243,-64 243,-64 243,-61 246,-58 249,-58 249,-58 293,-58 293,-58 296,-58 299,-61 299,-64 299,-64 299,-70 299,-70 299,-73 296,-76 293,-76"/>
<text text-anchor="start" x="251" y="-64.8" font-family="Helvetica,sans-Serif" font-size="9.00">version.ts</text>
</a>
</g>
</g>
<!-- src/ThreeBCF.ts&#45;&gt;src/version.ts -->
<g id="edge2" class="edge">
<title>src/ThreeBCF.ts&#45;&gt;src/version.ts</title>
<path fill="none" stroke="#000000" stroke-width="2" stroke-opacity="0.200000" d="M230.43,-67C230.43,-67 236.85,-67 236.85,-67"/>
<polygon fill="#000000" fill-opacity="0.200000" stroke="#000000" stroke-width="2" stroke-opacity="0.200000" points="236.85,-69.1 242.85,-67 236.85,-64.9 236.85,-69.1"/>
</g>
<!-- src/constants.ts -->
<g id="node4" class="node">
<title>src/constants.ts</title>
<g id="a_node4"><a xlink:href="src/constants.ts" xlink:title="constants.ts">
<path fill="#ddfeff" stroke="black" d="M371,-136C371,-136 318,-136 318,-136 315,-136 312,-133 312,-130 312,-130 312,-124 312,-124 312,-121 315,-118 318,-118 318,-118 371,-118 371,-118 374,-118 377,-121 377,-124 377,-124 377,-130 377,-130 377,-133 374,-136 371,-136"/>
<text text-anchor="start" x="320" y="-124.8" font-family="Helvetica,sans-Serif" font-size="9.00">constants.ts</text>
</a>
</g>
</g>
<!-- src/types.ts&#45;&gt;src/constants.ts -->
<g id="edge17" class="edge">
<title>src/types.ts&#45;&gt;src/constants.ts</title>
<path fill="none" stroke="#000000" stroke-width="2" stroke-opacity="0.200000" d="M285,-120.2C285,-124.8 285,-129.4 285,-129.4 285,-129.4 305.96,-129.4 305.96,-129.4"/>
<polygon fill="#000000" fill-opacity="0.200000" stroke="#000000" stroke-width="2" stroke-opacity="0.200000" points="305.96,-131.5 311.96,-129.4 305.96,-127.3 305.96,-131.5"/>
</g>
<!-- src/core/ -->
<g id="node6" class="node">
<title>src/core/</title>
<g id="a_node6"><a xlink:href="src/core/" xlink:title="core">
<polygon fill="#ffffcc" stroke="black" points="371.5,-40 319.5,-40 317.5,-38 317.5,-22 369.5,-22 371.5,-24 371.5,-40"/>
<polyline fill="none" stroke="black" points="369.5,-38 317.5,-38 "/>
<polyline fill="none" stroke="black" points="369.5,-38 369.5,-22 "/>
<polyline fill="none" stroke="black" points="369.5,-38 371.5,-40 "/>
<text text-anchor="start" x="335" y="-28.8" font-family="Helvetica,sans-Serif" font-size="9.00">core</text>
</a>
</g>
</g>
<!-- src/types.ts&#45;&gt;src/core/ -->
<g id="edge18" class="edge">
<title>src/types.ts&#45;&gt;src/core/</title>
<path fill="none" stroke="#000000" stroke-width="2" stroke-opacity="0.200000" d="M298.18,-110C322.38,-110 354,-110 354,-110 354,-110 354,-46.06 354,-46.06"/>
<polygon fill="#000000" fill-opacity="0.200000" stroke="#000000" stroke-width="2" stroke-opacity="0.200000" points="356.1,-46.06 354,-40.06 351.9,-46.06 356.1,-46.06"/>
</g>
<!-- src/contribute.ts -->
<g id="node5" class="node">
<title>src/contribute.ts</title>
<g id="a_node5"><a xlink:href="src/contribute.ts" xlink:title="contribute.ts">
<path fill="#ddfeff" stroke="black" d="M76,-125C76,-125 22,-125 22,-125 19,-125 16,-122 16,-119 16,-119 16,-113 16,-113 16,-110 19,-107 22,-107 22,-107 76,-107 76,-107 79,-107 82,-110 82,-113 82,-113 82,-119 82,-119 82,-122 79,-125 76,-125"/>
<text text-anchor="start" x="24" y="-113.8" font-family="Helvetica,sans-Serif" font-size="9.00">contribute.ts</text>
</a>
</g>
</g>
<!-- src/contribute.ts&#45;&gt;src/core/ -->
<g id="edge3" class="edge">
<title>src/contribute.ts&#45;&gt;src/core/</title>
<path fill="none" stroke="#000000" stroke-width="2" stroke-opacity="0.200000" d="M82.03,-113C86.18,-113 89,-113 89,-113 89,-113 89,-28 89,-28 89,-28 311.16,-28 311.16,-28"/>
<polygon fill="#000000" fill-opacity="0.200000" stroke="#000000" stroke-width="2" stroke-opacity="0.200000" points="311.16,-30.1 317.16,-28 311.16,-25.9 311.16,-30.1"/>
</g>
<!-- src/three&#45;bcf/ -->
<g id="node7" class="node">
<title>src/three&#45;bcf/</title>
<g id="a_node7"><a xlink:href="src/three-bcf/" xlink:title="three&#45;bcf">
<polygon fill="#ffffcc" stroke="black" points="149,-125 97,-125 95,-123 95,-107 147,-107 149,-109 149,-125"/>
<polyline fill="none" stroke="black" points="147,-123 95,-123 "/>
<polyline fill="none" stroke="black" points="147,-123 147,-107 "/>
<polyline fill="none" stroke="black" points="147,-123 149,-125 "/>
<text text-anchor="start" x="103.5" y="-113.8" font-family="Helvetica,sans-Serif" font-size="9.00">three&#45;bcf</text>
</a>
</g>
</g>
<!-- src/contribute.ts&#45;&gt;src/three&#45;bcf/ -->
<g id="edge4" class="edge">
<title>src/contribute.ts&#45;&gt;src/three&#45;bcf/</title>
<path fill="none" stroke="#000000" stroke-width="2" stroke-opacity="0.200000" d="M82.08,-119C82.08,-119 88.71,-119 88.71,-119"/>
<polygon fill="#000000" fill-opacity="0.200000" stroke="#000000" stroke-width="2" stroke-opacity="0.200000" points="88.71,-121.1 94.71,-119 88.71,-116.9 88.71,-121.1"/>
</g>
<!-- src/three/ -->
<g id="node8" class="node">
<title>src/three/</title>
<g id="a_node8"><a xlink:href="src/three/" xlink:title="three">
<polygon fill="#ffffcc" stroke="black" points="223,-164 171,-164 169,-162 169,-146 221,-146 223,-148 223,-164"/>
<polyline fill="none" stroke="black" points="221,-162 169,-162 "/>
<polyline fill="none" stroke="black" points="221,-162 221,-146 "/>
<polyline fill="none" stroke="black" points="221,-162 223,-164 "/>
<text text-anchor="start" x="185" y="-152.8" font-family="Helvetica,sans-Serif" font-size="9.00">three</text>
</a>
</g>
</g>
<!-- src/contribute.ts&#45;&gt;src/three/ -->
<g id="edge5" class="edge">
<title>src/contribute.ts&#45;&gt;src/three/</title>
<path fill="none" stroke="#000000" stroke-width="2" stroke-opacity="0.200000" d="M49,-125.32C49,-137.69 49,-158 49,-158 49,-158 162.69,-158 162.69,-158"/>
<polygon fill="#000000" fill-opacity="0.200000" stroke="#000000" stroke-width="2" stroke-opacity="0.200000" points="162.69,-160.1 168.69,-158 162.69,-155.9 162.69,-160.1"/>
</g>
<!-- src/three&#45;bcf/&#45;&gt;src/types.ts -->
<g id="edge13" class="edge">
<title>src/three&#45;bcf/&#45;&gt;src/types.ts</title>
<path fill="none" stroke="#000000" stroke-width="2" stroke-opacity="0.200000" d="M131,-125.04C131,-126.31 131,-127.2 131,-127.2 131,-127.2 258,-127.2 258,-127.2 258,-127.2 258,-126.24 258,-126.24"/>
<polygon fill="#000000" fill-opacity="0.200000" stroke="#000000" stroke-width="2" stroke-opacity="0.200000" points="260.1,-126.24 258,-120.24 255.9,-126.24 260.1,-126.24"/>
</g>
<!-- src/three&#45;bcf/&#45;&gt;src/constants.ts -->
<g id="edge12" class="edge">
<title>src/three&#45;bcf/&#45;&gt;src/constants.ts</title>
<path fill="none" stroke="#000000" stroke-width="2" stroke-opacity="0.200000" d="M113,-125.25C113,-128.61 113,-131.6 113,-131.6 113,-131.6 305.82,-131.6 305.82,-131.6"/>
<polygon fill="#000000" fill-opacity="0.200000" stroke="#000000" stroke-width="2" stroke-opacity="0.200000" points="305.82,-133.7 311.82,-131.6 305.82,-129.5 305.82,-133.7"/>
</g>
<!-- src/worker/ -->
<g id="node10" class="node">
<title>src/worker/</title>
<g id="a_node10"><a xlink:href="src/worker/" xlink:title="worker">
<polygon fill="#ffffcc" stroke="black" points="223,-120 171,-120 169,-118 169,-102 221,-102 223,-104 223,-120"/>
<polyline fill="none" stroke="black" points="221,-118 169,-118 "/>
<polyline fill="none" stroke="black" points="221,-118 221,-102 "/>
<polyline fill="none" stroke="black" points="221,-118 223,-120 "/>
<text text-anchor="start" x="182" y="-108.8" font-family="Helvetica,sans-Serif" font-size="9.00">worker</text>
</a>
</g>
</g>
<!-- src/three&#45;bcf/&#45;&gt;src/worker/ -->
<g id="edge14" class="edge">
<title>src/three&#45;bcf/&#45;&gt;src/worker/</title>
<path fill="none" stroke="#000000" stroke-width="2" stroke-opacity="0.200000" d="M149.13,-115.67C149.13,-115.67 162.87,-115.67 162.87,-115.67"/>
<polygon fill="#000000" fill-opacity="0.200000" stroke="#000000" stroke-width="2" stroke-opacity="0.200000" points="162.87,-117.77 168.87,-115.67 162.87,-113.57 162.87,-117.77"/>
</g>
<!-- src/three/&#45;&gt;src/types.ts -->
<g id="edge16" class="edge">
<title>src/three/&#45;&gt;src/types.ts</title>
<path fill="none" stroke="#000000" stroke-width="2" stroke-opacity="0.200000" d="M223.08,-155C244.56,-155 271,-155 271,-155 271,-155 271,-126.33 271,-126.33"/>
<polygon fill="#000000" fill-opacity="0.200000" stroke="#000000" stroke-width="2" stroke-opacity="0.200000" points="273.1,-126.33 271,-120.33 268.9,-126.33 273.1,-126.33"/>
</g>
<!-- src/three/&#45;&gt;src/constants.ts -->
<g id="edge15" class="edge">
<title>src/three/&#45;&gt;src/constants.ts</title>
<path fill="none" stroke="#000000" stroke-width="2" stroke-opacity="0.200000" d="M196,-145.89C196,-140.14 196,-133.8 196,-133.8 196,-133.8 305.91,-133.8 305.91,-133.8"/>
<polygon fill="#000000" fill-opacity="0.200000" stroke="#000000" stroke-width="2" stroke-opacity="0.200000" points="305.91,-135.9 311.91,-133.8 305.91,-131.7 305.91,-135.9"/>
</g>
<!-- src/index.ts -->
<g id="node9" class="node">
<title>src/index.ts</title>
<g id="a_node9"><a xlink:href="src/index.ts" xlink:title="index.ts">
<path fill="#ddfeff" stroke="black" d="M143,-85C143,-85 101,-85 101,-85 98,-85 95,-82 95,-79 95,-79 95,-73 95,-73 95,-70 98,-67 101,-67 101,-67 143,-67 143,-67 146,-67 149,-70 149,-73 149,-73 149,-79 149,-79 149,-82 146,-85 143,-85"/>
<text text-anchor="start" x="106" y="-73.8" font-family="Helvetica,sans-Serif" font-size="9.00">index.ts</text>
</a>
</g>
</g>
<!-- src/index.ts&#45;&gt;src/ThreeBCF.ts -->
<g id="edge9" class="edge">
<title>src/index.ts&#45;&gt;src/ThreeBCF.ts</title>
<path fill="none" stroke="#000000" stroke-width="2" stroke-opacity="0.200000" d="M149.13,-71.5C149.13,-71.5 155.81,-71.5 155.81,-71.5"/>
<polygon fill="#000000" fill-opacity="0.200000" stroke="#000000" stroke-width="2" stroke-opacity="0.200000" points="155.81,-73.6 161.81,-71.5 155.81,-69.4 155.81,-73.6"/>
</g>
<!-- src/index.ts&#45;&gt;src/types.ts -->
<g id="edge10" class="edge">
<title>src/index.ts&#45;&gt;src/types.ts</title>
<path fill="none" stroke="#000000" stroke-width="2" stroke-opacity="0.200000" d="M149.33,-79.6C192.34,-79.6 271,-79.6 271,-79.6 271,-79.6 271,-95.75 271,-95.75"/>
<polygon fill="#000000" fill-opacity="0.200000" stroke="#000000" stroke-width="2" stroke-opacity="0.200000" points="268.9,-95.75 271,-101.75 273.1,-95.75 268.9,-95.75"/>
</g>
<!-- src/index.ts&#45;&gt;src/constants.ts -->
<g id="edge6" class="edge">
<title>src/index.ts&#45;&gt;src/constants.ts</title>
<path fill="none" stroke="#000000" stroke-width="2" stroke-opacity="0.200000" d="M149.1,-77.8C206.69,-77.8 336,-77.8 336,-77.8 336,-77.8 336,-111.98 336,-111.98"/>
<polygon fill="#000000" fill-opacity="0.200000" stroke="#000000" stroke-width="2" stroke-opacity="0.200000" points="333.9,-111.98 336,-117.98 338.1,-111.98 333.9,-111.98"/>
</g>
<!-- src/index.ts&#45;&gt;src/core/ -->
<g id="edge7" class="edge">
<title>src/index.ts&#45;&gt;src/core/</title>
<path fill="none" stroke="#000000" stroke-width="2" stroke-opacity="0.200000" d="M122,-66.68C122,-54.31 122,-34 122,-34 122,-34 311.22,-34 311.22,-34"/>
<polygon fill="#000000" fill-opacity="0.200000" stroke="#000000" stroke-width="2" stroke-opacity="0.200000" points="311.22,-36.1 317.22,-34 311.22,-31.9 311.22,-36.1"/>
</g>
<!-- src/index.ts&#45;&gt;src/three/ -->
<g id="edge8" class="edge">
<title>src/index.ts&#45;&gt;src/three/</title>
<path fill="none" stroke="#000000" stroke-width="2" stroke-opacity="0.200000" d="M149.12,-81.4C153.16,-81.4 156,-81.4 156,-81.4 156,-81.4 156,-152 156,-152 156,-152 162.66,-152 162.66,-152"/>
<polygon fill="#000000" fill-opacity="0.200000" stroke="#000000" stroke-width="2" stroke-opacity="0.200000" points="162.66,-154.1 168.66,-152 162.66,-149.9 162.66,-154.1"/>
</g>
<!-- src/index.ts&#45;&gt;src/worker/ -->
<g id="edge11" class="edge">
<title>src/index.ts&#45;&gt;src/worker/</title>
<path fill="none" stroke="#000000" stroke-width="2" stroke-opacity="0.200000" d="M149.13,-83.2C170.25,-83.2 196,-83.2 196,-83.2 196,-83.2 196,-95.9 196,-95.9"/>
<polygon fill="#000000" fill-opacity="0.200000" stroke="#000000" stroke-width="2" stroke-opacity="0.200000" points="193.9,-95.9 196,-101.9 198.1,-95.9 193.9,-95.9"/>
</g>
<!-- src/worker/&#45;&gt;src/types.ts -->
<g id="edge20" class="edge">
<title>src/worker/&#45;&gt;src/types.ts</title>
<path fill="none" stroke="#000000" stroke-width="2" stroke-opacity="0.200000" d="M223.08,-114C223.08,-114 237.96,-114 237.96,-114"/>
<polygon fill="#000000" fill-opacity="0.200000" stroke="#000000" stroke-width="2" stroke-opacity="0.200000" points="237.96,-116.1 243.96,-114 237.96,-111.9 237.96,-116.1"/>
</g>
<!-- src/worker/&#45;&gt;src/three&#45;bcf/ -->
<g id="edge19" class="edge">
<title>src/worker/&#45;&gt;src/three&#45;bcf/</title>
<path fill="none" stroke="#000000" stroke-width="2" stroke-opacity="0.200000" d="M168.87,-111.33C168.87,-111.33 155.13,-111.33 155.13,-111.33"/>
<polygon fill="#000000" fill-opacity="0.200000" stroke="#000000" stroke-width="2" stroke-opacity="0.200000" points="155.13,-109.23 149.13,-111.33 155.13,-113.43 155.13,-109.23"/>
</g>
<!-- src/vite&#45;env.d.ts -->
<g id="node11" class="node">
<title>src/vite&#45;env.d.ts</title>
<g id="a_node11"><a xlink:href="src/vite-env.d.ts" xlink:title="vite&#45;env.d.ts">
<path fill="#ccffcc" stroke="black" d="M75.5,-67C75.5,-67 22.5,-67 22.5,-67 19.5,-67 16.5,-64 16.5,-61 16.5,-61 16.5,-55 16.5,-55 16.5,-52 19.5,-49 22.5,-49 22.5,-49 75.5,-49 75.5,-49 78.5,-49 81.5,-52 81.5,-55 81.5,-55 81.5,-61 81.5,-61 81.5,-64 78.5,-67 75.5,-67"/>
<text text-anchor="start" x="24.5" y="-55.8" font-family="Helvetica,sans-Serif" font-size="9.00">vite&#45;env.d.ts</text>
</a>
</g>
</g>
</g>
</svg>
