<?xml version="1.0" encoding="UTF-8" standalone="no"?>
<!DOCTYPE svg PUBLIC "-//W3C//DTD SVG 1.1//EN"
 "http://www.w3.org/Graphics/SVG/1.1/DTD/svg11.dtd">
<!-- Generated by graphviz version 2.50.0 (20211204.2007)
 -->
<!-- Title: dependency&#45;cruiser output Pages: 1 -->
<svg width="401pt" height="234pt"
 viewBox="0.00 0.00 401.00 234.00" xmlns="http://www.w3.org/2000/svg" xmlns:xlink="http://www.w3.org/1999/xlink">
<g id="graph0" class="graph" transform="scale(1 1) rotate(0) translate(4 230)">
<title>dependency&#45;cruiser output</title>
<polygon fill="white" stroke="transparent" points="-4,4 -4,-230 397,-230 397,4 -4,4"/>
<g id="clust1" class="cluster">
<title>cluster_src</title>
<path fill="#ffffff" stroke="black" stroke-width="2" d="M20,-8C20,-8 373,-8 373,-8 379,-8 385,-14 385,-20 385,-20 385,-206 385,-206 385,-212 379,-218 373,-218 373,-218 20,-218 20,-218 14,-218 8,-212 8,-206 8,-206 8,-20 8,-20 8,-14 14,-8 20,-8"/>
<text text-anchor="middle" x="196.5" y="-206.8" font-family="Helvetica,sans-Serif" font-weight="bold" font-size="9.00">src</text>
</g>
<!-- src/ThreeBCF.ts -->
<g id="node1" class="node">
<title>src/ThreeBCF.ts</title>
<g id="a_node1"><a xlink:href="src/ThreeBCF.ts" xlink:title="ThreeBCF.ts">
<path fill="#ddfeff" stroke="black" d="M157,-142C157,-142 101,-142 101,-142 98,-142 95,-139 95,-136 95,-136 95,-130 95,-130 95,-127 98,-124 101,-124 101,-124 157,-124 157,-124 160,-124 163,-127 163,-130 163,-130 163,-136 163,-136 163,-139 160,-142 157,-142"/>
<text text-anchor="start" x="103" y="-130.8" font-family="Helvetica,sans-Serif" font-size="9.00">ThreeBCF.ts</text>
</a>
</g>
</g>
<!-- src/types.ts -->
<g id="node2" class="node">
<title>src/types.ts</title>
<g id="a_node2"><a xlink:href="src/types.ts" xlink:title="types.ts">
<path fill="#ddfeff" stroke="black" d="M293,-106C293,-106 251,-106 251,-106 248,-106 245,-103 245,-100 245,-100 245,-94 245,-94 245,-91 248,-88 251,-88 251,-88 293,-88 293,-88 296,-88 299,-91 299,-94 299,-94 299,-100 299,-100 299,-103 296,-106 293,-106"/>
<text text-anchor="start" x="256.5" y="-94.8" font-family="Helvetica,sans-Serif" font-size="9.00">types.ts</text>
</a>
</g>
</g>
<!-- src/ThreeBCF.ts&#45;&gt;src/types.ts -->
<g id="edge1" class="edge">
<title>src/ThreeBCF.ts&#45;&gt;src/types.ts</title>
<path fill="none" stroke="#000000" stroke-width="2" stroke-opacity="0.200000" d="M163.11,-130C207.93,-130 281,-130 281,-130 281,-130 281,-112.02 281,-112.02"/>
<polygon fill="#000000" fill-opacity="0.200000" stroke="#000000" stroke-width="2" stroke-opacity="0.200000" points="283.1,-112.02 281,-106.02 278.9,-112.02 283.1,-112.02"/>
</g>
<!-- src/version.ts -->
<g id="node3" class="node">
<title>src/version.ts</title>
<g id="a_node3"><a xlink:href="src/version.ts" xlink:title="version.ts">
<path fill="#ddfeff" stroke="black" d="M226,-164C226,-164 182,-164 182,-164 179,-164 176,-161 176,-158 176,-158 176,-152 176,-152 176,-149 179,-146 182,-146 182,-146 226,-146 226,-146 229,-146 232,-149 232,-152 232,-152 232,-158 232,-158 232,-161 229,-164 226,-164"/>
<text text-anchor="start" x="184" y="-152.8" font-family="Helvetica,sans-Serif" font-size="9.00">version.ts</text>
</a>
</g>
</g>
<!-- src/ThreeBCF.ts&#45;&gt;src/version.ts -->
<g id="edge2" class="edge">
<title>src/ThreeBCF.ts&#45;&gt;src/version.ts</title>
<path fill="none" stroke="#000000" stroke-width="2" stroke-opacity="0.200000" d="M163.43,-136C183.14,-136 204,-136 204,-136 204,-136 204,-139.95 204,-139.95"/>
<polygon fill="#000000" fill-opacity="0.200000" stroke="#000000" stroke-width="2" stroke-opacity="0.200000" points="201.9,-139.95 204,-145.95 206.1,-139.95 201.9,-139.95"/>
</g>
<!-- src/constants.ts -->
<g id="node4" class="node">
<title>src/constants.ts</title>
<g id="a_node4"><a xlink:href="src/constants.ts" xlink:title="constants.ts">
<path fill="#ddfeff" stroke="black" d="M371,-95C371,-95 318,-95 318,-95 315,-95 312,-92 312,-89 312,-89 312,-83 312,-83 312,-80 315,-77 318,-77 318,-77 371,-77 371,-77 374,-77 377,-80 377,-83 377,-83 377,-89 377,-89 377,-92 374,-95 371,-95"/>
<text text-anchor="start" x="320" y="-83.8" font-family="Helvetica,sans-Serif" font-size="9.00">constants.ts</text>
</a>
</g>
</g>
<!-- src/types.ts&#45;&gt;src/constants.ts -->
<g id="edge19" class="edge">
<title>src/types.ts&#45;&gt;src/constants.ts</title>
<path fill="none" stroke="#000000" stroke-width="2" stroke-opacity="0.200000" d="M299.41,-91.5C299.41,-91.5 305.69,-91.5 305.69,-91.5"/>
<polygon fill="#000000" fill-opacity="0.200000" stroke="#000000" stroke-width="2" stroke-opacity="0.200000" points="305.69,-93.6 311.69,-91.5 305.69,-89.4 305.69,-93.6"/>
</g>
<!-- src/core/ -->
<g id="node6" class="node">
<title>src/core/</title>
<g id="a_node6"><a xlink:href="src/core/" xlink:title="core">
<polygon fill="#ffffcc" stroke="black" points="371.5,-47 319.5,-47 317.5,-45 317.5,-29 369.5,-29 371.5,-31 371.5,-47"/>
<polyline fill="none" stroke="black" points="369.5,-45 317.5,-45 "/>
<polyline fill="none" stroke="black" points="369.5,-45 369.5,-29 "/>
<polyline fill="none" stroke="black" points="369.5,-45 371.5,-47 "/>
<text text-anchor="start" x="335" y="-35.8" font-family="Helvetica,sans-Serif" font-size="9.00">core</text>
</a>
</g>
</g>
<!-- src/types.ts&#45;&gt;src/core/ -->
<g id="edge20" class="edge">
<title>src/types.ts&#45;&gt;src/core/</title>
<path fill="none" stroke="#000000" stroke-width="2" stroke-opacity="0.200000" d="M272,-87.92C272,-72.3 272,-42 272,-42 272,-42 311.09,-42 311.09,-42"/>
<polygon fill="#000000" fill-opacity="0.200000" stroke="#000000" stroke-width="2" stroke-opacity="0.200000" points="311.09,-44.1 317.09,-42 311.09,-39.9 311.09,-44.1"/>
</g>
<!-- src/contribute.ts -->
<g id="node5" class="node">
<title>src/contribute.ts</title>
<g id="a_node5"><a xlink:href="src/contribute.ts" xlink:title="contribute.ts">
<path fill="#ddfeff" stroke="black" d="M76,-64C76,-64 22,-64 22,-64 19,-64 16,-61 16,-58 16,-58 16,-52 16,-52 16,-49 19,-46 22,-46 22,-46 76,-46 76,-46 79,-46 82,-49 82,-52 82,-52 82,-58 82,-58 82,-61 79,-64 76,-64"/>
<text text-anchor="start" x="24" y="-52.8" font-family="Helvetica,sans-Serif" font-size="9.00">contribute.ts</text>
</a>
</g>
</g>
<!-- src/contribute.ts&#45;&gt;src/core/ -->
<g id="edge3" class="edge">
<title>src/contribute.ts&#45;&gt;src/core/</title>
<path fill="none" stroke="#000000" stroke-width="2" stroke-opacity="0.200000" d="M49,-45.95C49,-41.05 49,-36 49,-36 49,-36 311.49,-36 311.49,-36"/>
<polygon fill="#000000" fill-opacity="0.200000" stroke="#000000" stroke-width="2" stroke-opacity="0.200000" points="311.49,-38.1 317.49,-36 311.49,-33.9 311.49,-38.1"/>
</g>
<!-- src/three&#45;bcf/ -->
<g id="node7" class="node">
<title>src/three&#45;bcf/</title>
<g id="a_node7"><a xlink:href="src/three-bcf/" xlink:title="three&#45;bcf">
<polygon fill="#ffffcc" stroke="black" points="156,-98 104,-98 102,-96 102,-80 154,-80 156,-82 156,-98"/>
<polyline fill="none" stroke="black" points="154,-96 102,-96 "/>
<polyline fill="none" stroke="black" points="154,-96 154,-80 "/>
<polyline fill="none" stroke="black" points="154,-96 156,-98 "/>
<text text-anchor="start" x="110.5" y="-86.8" font-family="Helvetica,sans-Serif" font-size="9.00">three&#45;bcf</text>
</a>
</g>
</g>
<!-- src/contribute.ts&#45;&gt;src/three&#45;bcf/ -->
<g id="edge4" class="edge">
<title>src/contribute.ts&#45;&gt;src/three&#45;bcf/</title>
<path fill="none" stroke="#000000" stroke-width="2" stroke-opacity="0.200000" d="M82,-58C104.04,-58 129,-58 129,-58 129,-58 129,-73.87 129,-73.87"/>
<polygon fill="#000000" fill-opacity="0.200000" stroke="#000000" stroke-width="2" stroke-opacity="0.200000" points="126.9,-73.87 129,-79.87 131.1,-73.87 126.9,-73.87"/>
</g>
<!-- src/three/ -->
<g id="node8" class="node">
<title>src/three/</title>
<g id="a_node8"><a xlink:href="src/three/" xlink:title="three">
<polygon fill="#ffffcc" stroke="black" points="231,-62 179,-62 177,-60 177,-44 229,-44 231,-46 231,-62"/>
<polyline fill="none" stroke="black" points="229,-60 177,-60 "/>
<polyline fill="none" stroke="black" points="229,-60 229,-44 "/>
<polyline fill="none" stroke="black" points="229,-60 231,-62 "/>
<text text-anchor="start" x="193" y="-50.8" font-family="Helvetica,sans-Serif" font-size="9.00">three</text>
</a>
</g>
</g>
<!-- src/contribute.ts&#45;&gt;src/three/ -->
<g id="edge5" class="edge">
<title>src/contribute.ts&#45;&gt;src/three/</title>
<path fill="none" stroke="#000000" stroke-width="2" stroke-opacity="0.200000" d="M82.25,-50C82.25,-50 170.99,-50 170.99,-50"/>
<polygon fill="#000000" fill-opacity="0.200000" stroke="#000000" stroke-width="2" stroke-opacity="0.200000" points="170.99,-52.1 176.99,-50 170.99,-47.9 170.99,-52.1"/>
</g>
<!-- src/three&#45;bcf/&#45;&gt;src/types.ts -->
<g id="edge14" class="edge">
<title>src/three&#45;bcf/&#45;&gt;src/types.ts</title>
<path fill="none" stroke="#000000" stroke-width="2" stroke-opacity="0.200000" d="M156.23,-91.33C156.23,-91.33 238.87,-91.33 238.87,-91.33"/>
<polygon fill="#000000" fill-opacity="0.200000" stroke="#000000" stroke-width="2" stroke-opacity="0.200000" points="238.87,-93.43 244.87,-91.33 238.87,-89.23 238.87,-93.43"/>
</g>
<!-- src/three&#45;bcf/&#45;&gt;src/constants.ts -->
<g id="edge13" class="edge">
<title>src/three&#45;bcf/&#45;&gt;src/constants.ts</title>
<path fill="none" stroke="#000000" stroke-width="2" stroke-opacity="0.200000" d="M156.29,-84C156.29,-84 305.8,-84 305.8,-84"/>
<polygon fill="#000000" fill-opacity="0.200000" stroke="#000000" stroke-width="2" stroke-opacity="0.200000" points="305.8,-86.1 311.8,-84 305.8,-81.9 305.8,-86.1"/>
</g>
<!-- src/worker/ -->
<g id="node10" class="node">
<title>src/worker/</title>
<g id="a_node10"><a xlink:href="src/worker/" xlink:title="worker">
<polygon fill="#ffffcc" stroke="black" points="231,-120 179,-120 177,-118 177,-102 229,-102 231,-104 231,-120"/>
<polyline fill="none" stroke="black" points="229,-118 177,-118 "/>
<polyline fill="none" stroke="black" points="229,-118 229,-102 "/>
<polyline fill="none" stroke="black" points="229,-118 231,-120 "/>
<text text-anchor="start" x="190" y="-108.8" font-family="Helvetica,sans-Serif" font-size="9.00">worker</text>
</a>
</g>
</g>
<!-- src/three&#45;bcf/&#45;&gt;src/worker/ -->
<g id="edge15" class="edge">
<title>src/three&#45;bcf/&#45;&gt;src/worker/</title>
<path fill="none" stroke="#000000" stroke-width="2" stroke-opacity="0.200000" d="M156.26,-94.67C175.92,-94.67 199,-94.67 199,-94.67 199,-94.67 199,-95.69 199,-95.69"/>
<polygon fill="#000000" fill-opacity="0.200000" stroke="#000000" stroke-width="2" stroke-opacity="0.200000" points="196.9,-95.69 199,-101.69 201.1,-95.69 196.9,-95.69"/>
</g>
<!-- src/three/&#45;&gt;src/types.ts -->
<g id="edge17" class="edge">
<title>src/three/&#45;&gt;src/types.ts</title>
<path fill="none" stroke="#000000" stroke-width="2" stroke-opacity="0.200000" d="M210,-62.25C210,-73.11 210,-89.67 210,-89.67 210,-89.67 238.99,-89.67 238.99,-89.67"/>
<polygon fill="#000000" fill-opacity="0.200000" stroke="#000000" stroke-width="2" stroke-opacity="0.200000" points="238.99,-91.77 244.99,-89.67 238.99,-87.57 238.99,-91.77"/>
</g>
<!-- src/three/&#45;&gt;src/constants.ts -->
<g id="edge16" class="edge">
<title>src/three/&#45;&gt;src/constants.ts</title>
<path fill="none" stroke="#000000" stroke-width="2" stroke-opacity="0.200000" d="M221,-62.18C221,-70.67 221,-82 221,-82 221,-82 305.73,-82 305.73,-82"/>
<polygon fill="#000000" fill-opacity="0.200000" stroke="#000000" stroke-width="2" stroke-opacity="0.200000" points="305.73,-84.1 311.73,-82 305.73,-79.9 305.73,-84.1"/>
</g>
<!-- src/three/&#45;&gt;src/core/ -->
<g id="edge18" class="edge">
<title>src/three/&#45;&gt;src/core/</title>
<path fill="none" stroke="#000000" stroke-width="2" stroke-opacity="0.200000" d="M204,-43.83C204,-41.68 204,-40 204,-40 204,-40 311.41,-40 311.41,-40"/>
<polygon fill="#000000" fill-opacity="0.200000" stroke="#000000" stroke-width="2" stroke-opacity="0.200000" points="311.41,-42.1 317.41,-40 311.41,-37.9 311.41,-42.1"/>
</g>
<!-- src/index.ts -->
<g id="node9" class="node">
<title>src/index.ts</title>
<g id="a_node9"><a xlink:href="src/index.ts" xlink:title="index.ts">
<path fill="#ddfeff" stroke="black" d="M70,-120C70,-120 28,-120 28,-120 25,-120 22,-117 22,-114 22,-114 22,-108 22,-108 22,-105 25,-102 28,-102 28,-102 70,-102 70,-102 73,-102 76,-105 76,-108 76,-108 76,-114 76,-114 76,-117 73,-120 70,-120"/>
<text text-anchor="start" x="33" y="-108.8" font-family="Helvetica,sans-Serif" font-size="9.00">index.ts</text>
</a>
</g>
</g>
<!-- src/index.ts&#45;&gt;src/ThreeBCF.ts -->
<g id="edge10" class="edge">
<title>src/index.ts&#45;&gt;src/ThreeBCF.ts</title>
<path fill="none" stroke="#000000" stroke-width="2" stroke-opacity="0.200000" d="M76.05,-117.75C87.83,-117.75 99,-117.75 99,-117.75 99,-117.75 99,-118.37 99,-118.37"/>
<polygon fill="#000000" fill-opacity="0.200000" stroke="#000000" stroke-width="2" stroke-opacity="0.200000" points="96.9,-117.95 99,-123.95 101.1,-117.95 96.9,-117.95"/>
</g>
<!-- src/index.ts&#45;&gt;src/types.ts -->
<g id="edge11" class="edge">
<title>src/index.ts&#45;&gt;src/types.ts</title>
<path fill="none" stroke="#000000" stroke-width="2" stroke-opacity="0.200000" d="M76.3,-113.25C112.53,-113.25 172,-113.25 172,-113.25 172,-113.25 172,-93 172,-93 172,-93 238.94,-93 238.94,-93"/>
<polygon fill="#000000" fill-opacity="0.200000" stroke="#000000" stroke-width="2" stroke-opacity="0.200000" points="238.94,-95.1 244.94,-93 238.94,-90.9 238.94,-95.1"/>
</g>
<!-- src/index.ts&#45;&gt;src/constants.ts -->
<g id="edge6" class="edge">
<title>src/index.ts&#45;&gt;src/constants.ts</title>
<path fill="none" stroke="#000000" stroke-width="2" stroke-opacity="0.200000" d="M76.15,-108.75C109.02,-108.75 160,-108.75 160,-108.75 160,-108.75 160,-86 160,-86 160,-86 305.94,-86 305.94,-86"/>
<polygon fill="#000000" fill-opacity="0.200000" stroke="#000000" stroke-width="2" stroke-opacity="0.200000" points="305.94,-88.1 311.94,-86 305.94,-83.9 305.94,-88.1"/>
</g>
<!-- src/index.ts&#45;&gt;src/core/ -->
<g id="edge7" class="edge">
<title>src/index.ts&#45;&gt;src/core/</title>
<path fill="none" stroke="#000000" stroke-width="2" stroke-opacity="0.200000" d="M76,-111C111.11,-111 168,-111 168,-111 168,-111 168,-38 168,-38 168,-38 311.31,-38 311.31,-38"/>
<polygon fill="#000000" fill-opacity="0.200000" stroke="#000000" stroke-width="2" stroke-opacity="0.200000" points="311.31,-40.1 317.31,-38 311.31,-35.9 311.31,-40.1"/>
</g>
<!-- src/index.ts&#45;&gt;src/three&#45;bcf/ -->
<g id="edge9" class="edge">
<title>src/index.ts&#45;&gt;src/three&#45;bcf/</title>
<path fill="none" stroke="#000000" stroke-width="2" stroke-opacity="0.200000" d="M76.08,-106.5C99.29,-106.5 129,-106.5 129,-106.5 129,-106.5 129,-104.16 129,-104.16"/>
<polygon fill="#000000" fill-opacity="0.200000" stroke="#000000" stroke-width="2" stroke-opacity="0.200000" points="131.1,-104.16 129,-98.16 126.9,-104.16 131.1,-104.16"/>
</g>
<!-- src/index.ts&#45;&gt;src/three/ -->
<g id="edge8" class="edge">
<title>src/index.ts&#45;&gt;src/three/</title>
<path fill="none" stroke="#000000" stroke-width="2" stroke-opacity="0.200000" d="M76.34,-104.25C83.38,-104.25 89,-104.25 89,-104.25 89,-104.25 89,-54 89,-54 89,-54 170.75,-54 170.75,-54"/>
<polygon fill="#000000" fill-opacity="0.200000" stroke="#000000" stroke-width="2" stroke-opacity="0.200000" points="170.75,-56.1 176.75,-54 170.75,-51.9 170.75,-56.1"/>
</g>
<!-- src/index.ts&#45;&gt;src/worker/ -->
<g id="edge12" class="edge">
<title>src/index.ts&#45;&gt;src/worker/</title>
<path fill="none" stroke="#000000" stroke-width="2" stroke-opacity="0.200000" d="M76.35,-115.5C76.35,-115.5 170.92,-115.5 170.92,-115.5"/>
<polygon fill="#000000" fill-opacity="0.200000" stroke="#000000" stroke-width="2" stroke-opacity="0.200000" points="170.92,-117.6 176.92,-115.5 170.92,-113.4 170.92,-117.6"/>
</g>
<!-- src/worker/&#45;&gt;src/types.ts -->
<g id="edge22" class="edge">
<title>src/worker/&#45;&gt;src/types.ts</title>
<path fill="none" stroke="#000000" stroke-width="2" stroke-opacity="0.200000" d="M231.08,-113C246.59,-113 263,-113 263,-113 263,-113 263,-112.12 263,-112.12"/>
<polygon fill="#000000" fill-opacity="0.200000" stroke="#000000" stroke-width="2" stroke-opacity="0.200000" points="265.1,-112.12 263,-106.12 260.9,-112.12 265.1,-112.12"/>
</g>
<!-- src/worker/&#45;&gt;src/three&#45;bcf/ -->
<g id="edge21" class="edge">
<title>src/worker/&#45;&gt;src/three&#45;bcf/</title>
<path fill="none" stroke="#000000" stroke-width="2" stroke-opacity="0.200000" d="M188,-101.96C188,-98.94 188,-96.33 188,-96.33 188,-96.33 162.08,-96.33 162.08,-96.33"/>
<polygon fill="#000000" fill-opacity="0.200000" stroke="#000000" stroke-width="2" stroke-opacity="0.200000" points="162.08,-94.23 156.08,-96.33 162.08,-98.43 162.08,-94.23"/>
</g>
<!-- src/vite&#45;env.d.ts -->
<g id="node11" class="node">
<title>src/vite&#45;env.d.ts</title>
<g id="a_node11"><a xlink:href="src/vite-env.d.ts" xlink:title="vite&#45;env.d.ts">
<path fill="#ccffcc" stroke="black" d="M75.5,-34C75.5,-34 22.5,-34 22.5,-34 19.5,-34 16.5,-31 16.5,-28 16.5,-28 16.5,-22 16.5,-22 16.5,-19 19.5,-16 22.5,-16 22.5,-16 75.5,-16 75.5,-16 78.5,-16 81.5,-19 81.5,-22 81.5,-22 81.5,-28 81.5,-28 81.5,-31 78.5,-34 75.5,-34"/>
<text text-anchor="start" x="24.5" y="-22.8" font-family="Helvetica,sans-Serif" font-size="9.00">vite&#45;env.d.ts</text>
</a>
</g>
</g>
</g>
</svg>
