<?xml version="1.0" encoding="UTF-8" standalone="no"?>
<!DOCTYPE svg PUBLIC "-//W3C//DTD SVG 1.1//EN"
 "http://www.w3.org/Graphics/SVG/1.1/DTD/svg11.dtd">
<!-- Generated by graphviz version 2.50.0 (20211204.2007)
 -->
<!-- Title: dependency&#45;cruiser output Pages: 1 -->
<svg width="562pt" height="406pt"
 viewBox="0.00 0.00 562.00 406.00" xmlns="http://www.w3.org/2000/svg" xmlns:xlink="http://www.w3.org/1999/xlink">
<g id="graph0" class="graph" transform="scale(1 1) rotate(0) translate(4 402)">
<title>dependency&#45;cruiser output</title>
<polygon fill="white" stroke="transparent" points="-4,4 -4,-402 558,-402 558,4 -4,4"/>
<g id="clust1" class="cluster">
<title>cluster_src</title>
<path fill="#ffffff" stroke="black" stroke-width="2" d="M20,-8C20,-8 534,-8 534,-8 540,-8 546,-14 546,-20 546,-20 546,-378 546,-378 546,-384 540,-390 534,-390 534,-390 20,-390 20,-390 14,-390 8,-384 8,-378 8,-378 8,-20 8,-20 8,-14 14,-8 20,-8"/>
<text text-anchor="middle" x="277" y="-378.8" font-family="Helvetica,sans-Serif" font-weight="bold" font-size="9.00">src</text>
</g>
<g id="clust2" class="cluster">
<title>cluster_src/core</title>
<path fill="#ffffff" stroke="black" stroke-width="2" d="M332,-16C332,-16 526,-16 526,-16 532,-16 538,-22 538,-28 538,-28 538,-70 538,-70 538,-76 532,-82 526,-82 526,-82 332,-82 332,-82 326,-82 320,-76 320,-70 320,-70 320,-28 320,-28 320,-22 326,-16 332,-16"/>
<text text-anchor="middle" x="429" y="-70.8" font-family="Helvetica,sans-Serif" font-weight="bold" font-size="9.00">core</text>
</g>
<g id="clust3" class="cluster">
<title>cluster_src/three&#45;bcf</title>
<path fill="#ffffff" stroke="black" stroke-width="2" d="M174,-242C174,-242 378,-242 378,-242 384,-242 390,-248 390,-254 390,-254 390,-342 390,-342 390,-348 384,-354 378,-354 378,-354 174,-354 174,-354 168,-354 162,-348 162,-342 162,-342 162,-254 162,-254 162,-248 168,-242 174,-242"/>
<text text-anchor="middle" x="276" y="-342.8" font-family="Helvetica,sans-Serif" font-weight="bold" font-size="9.00">three&#45;bcf</text>
</g>
<g id="clust4" class="cluster">
<title>cluster_src/three</title>
<path fill="#ffffff" stroke="black" stroke-width="2" d="M174,-56C174,-56 300,-56 300,-56 306,-56 312,-62 312,-68 312,-68 312,-96 312,-96 312,-102 306,-108 300,-108 300,-108 174,-108 174,-108 168,-108 162,-102 162,-96 162,-96 162,-68 162,-68 162,-62 168,-56 174,-56"/>
<text text-anchor="middle" x="237" y="-96.8" font-family="Helvetica,sans-Serif" font-weight="bold" font-size="9.00">three</text>
</g>
<g id="clust5" class="cluster">
<title>cluster_src/worker</title>
<path fill="#ffffff" stroke="black" stroke-width="2" d="M101,-142C101,-142 220,-142 220,-142 226,-142 232,-148 232,-154 232,-154 232,-212 232,-212 232,-218 226,-224 220,-224 220,-224 101,-224 101,-224 95,-224 89,-218 89,-212 89,-212 89,-154 89,-154 89,-148 95,-142 101,-142"/>
<text text-anchor="middle" x="160.5" y="-212.8" font-family="Helvetica,sans-Serif" font-weight="bold" font-size="9.00">worker</text>
</g>
<!-- src/ThreeBCF.ts -->
<g id="node1" class="node">
<title>src/ThreeBCF.ts</title>
<g id="a_node1"><a xlink:href="src/ThreeBCF.ts" xlink:title="ThreeBCF.ts">
<path fill="#ddfeff" stroke="black" d="M305,-48C305,-48 249,-48 249,-48 246,-48 243,-45 243,-42 243,-42 243,-36 243,-36 243,-33 246,-30 249,-30 249,-30 305,-30 305,-30 308,-30 311,-33 311,-36 311,-36 311,-42 311,-42 311,-45 308,-48 305,-48"/>
<text text-anchor="start" x="251" y="-36.8" font-family="Helvetica,sans-Serif" font-size="9.00">ThreeBCF.ts</text>
</a>
</g>
</g>
<!-- src/types.ts -->
<g id="node2" class="node">
<title>src/types.ts</title>
<g id="a_node2"><a xlink:href="src/types.ts" xlink:title="types.ts">
<path fill="#ddfeff" stroke="black" d="M376,-215C376,-215 334,-215 334,-215 331,-215 328,-212 328,-209 328,-209 328,-203 328,-203 328,-200 331,-197 334,-197 334,-197 376,-197 376,-197 379,-197 382,-200 382,-203 382,-203 382,-209 382,-209 382,-212 379,-215 376,-215"/>
<text text-anchor="start" x="339.5" y="-203.8" font-family="Helvetica,sans-Serif" font-size="9.00">types.ts</text>
</a>
</g>
</g>
<!-- src/ThreeBCF.ts&#45;&gt;src/types.ts -->
<g id="edge1" class="edge">
<title>src/ThreeBCF.ts&#45;&gt;src/types.ts</title>
<path fill="none" stroke="#000000" stroke-width="2" stroke-opacity="0.200000" d="M248,-48.32C248,-83.16 248,-203.67 248,-203.67 248,-203.67 322,-203.67 322,-203.67"/>
<polygon fill="#000000" fill-opacity="0.200000" stroke="#000000" stroke-width="2" stroke-opacity="0.200000" points="322,-205.77 328,-203.67 322,-201.57 322,-205.77"/>
</g>
<!-- src/version.ts -->
<g id="node3" class="node">
<title>src/version.ts</title>
<g id="a_node3"><a xlink:href="src/version.ts" xlink:title="version.ts">
<path fill="#ddfeff" stroke="black" d="M377,-108C377,-108 333,-108 333,-108 330,-108 327,-105 327,-102 327,-102 327,-96 327,-96 327,-93 330,-90 333,-90 333,-90 377,-90 377,-90 380,-90 383,-93 383,-96 383,-96 383,-102 383,-102 383,-105 380,-108 377,-108"/>
<text text-anchor="start" x="335" y="-96.8" font-family="Helvetica,sans-Serif" font-size="9.00">version.ts</text>
</a>
</g>
</g>
<!-- src/ThreeBCF.ts&#45;&gt;src/version.ts -->
<g id="edge2" class="edge">
<title>src/ThreeBCF.ts&#45;&gt;src/version.ts</title>
<path fill="none" stroke="#000000" stroke-width="2" stroke-opacity="0.200000" d="M308,-48.49C308,-64.11 308,-93.5 308,-93.5 308,-93.5 320.85,-93.5 320.85,-93.5"/>
<polygon fill="#000000" fill-opacity="0.200000" stroke="#000000" stroke-width="2" stroke-opacity="0.200000" points="320.85,-95.6 326.85,-93.5 320.85,-91.4 320.85,-95.6"/>
</g>
<!-- src/constants.ts -->
<g id="node4" class="node">
<title>src/constants.ts</title>
<g id="a_node4"><a xlink:href="src/constants.ts" xlink:title="constants.ts">
<path fill="#ddfeff" stroke="black" d="M457,-290C457,-290 404,-290 404,-290 401,-290 398,-287 398,-284 398,-284 398,-278 398,-278 398,-275 401,-272 404,-272 404,-272 457,-272 457,-272 460,-272 463,-275 463,-278 463,-278 463,-284 463,-284 463,-287 460,-290 457,-290"/>
<text text-anchor="start" x="406" y="-278.8" font-family="Helvetica,sans-Serif" font-size="9.00">constants.ts</text>
</a>
</g>
</g>
<!-- src/types.ts&#45;&gt;src/constants.ts -->
<g id="edge32" class="edge">
<title>src/types.ts&#45;&gt;src/constants.ts</title>
<path fill="none" stroke="#000000" stroke-width="2" stroke-opacity="0.200000" d="M382.42,-209C405.92,-209 436,-209 436,-209 436,-209 436,-265.88 436,-265.88"/>
<polygon fill="#000000" fill-opacity="0.200000" stroke="#000000" stroke-width="2" stroke-opacity="0.200000" points="433.9,-265.88 436,-271.88 438.1,-265.88 433.9,-265.88"/>
</g>
<!-- src/core/topic.ts -->
<g id="node6" class="node">
<title>src/core/topic.ts</title>
<g id="a_node6"><a xlink:href="src/core/topic.ts" xlink:title="topic.ts">
<path fill="#ddfeff" stroke="black" d="M451.5,-56C451.5,-56 409.5,-56 409.5,-56 406.5,-56 403.5,-53 403.5,-50 403.5,-50 403.5,-44 403.5,-44 403.5,-41 406.5,-38 409.5,-38 409.5,-38 451.5,-38 451.5,-38 454.5,-38 457.5,-41 457.5,-44 457.5,-44 457.5,-50 457.5,-50 457.5,-53 454.5,-56 451.5,-56"/>
<text text-anchor="start" x="416" y="-44.8" font-family="Helvetica,sans-Serif" font-size="9.00">topic.ts</text>
</a>
</g>
</g>
<!-- src/types.ts&#45;&gt;src/core/topic.ts -->
<g id="edge33" class="edge">
<title>src/types.ts&#45;&gt;src/core/topic.ts</title>
<path fill="none" stroke="#000000" stroke-width="2" stroke-opacity="0.200000" d="M382.25,-203C402.27,-203 426,-203 426,-203 426,-203 426,-62.29 426,-62.29"/>
<polygon fill="#000000" fill-opacity="0.200000" stroke="#000000" stroke-width="2" stroke-opacity="0.200000" points="428.1,-62.29 426,-56.29 423.9,-62.29 428.1,-62.29"/>
</g>
<!-- src/contribute.ts -->
<g id="node5" class="node">
<title>src/contribute.ts</title>
<g id="a_node5"><a xlink:href="src/contribute.ts" xlink:title="contribute.ts">
<path fill="#ddfeff" stroke="black" d="M224,-134C224,-134 170,-134 170,-134 167,-134 164,-131 164,-128 164,-128 164,-122 164,-122 164,-119 167,-116 170,-116 170,-116 224,-116 224,-116 227,-116 230,-119 230,-122 230,-122 230,-128 230,-128 230,-131 227,-134 224,-134"/>
<text text-anchor="start" x="172" y="-122.8" font-family="Helvetica,sans-Serif" font-size="9.00">contribute.ts</text>
</a>
</g>
</g>
<!-- src/contribute.ts&#45;&gt;src/core/topic.ts -->
<g id="edge3" class="edge">
<title>src/contribute.ts&#45;&gt;src/core/topic.ts</title>
<path fill="none" stroke="#000000" stroke-width="2" stroke-opacity="0.200000" d="M230.11,-125C291.09,-125 415,-125 415,-125 415,-125 415,-62.25 415,-62.25"/>
<polygon fill="#000000" fill-opacity="0.200000" stroke="#000000" stroke-width="2" stroke-opacity="0.200000" points="417.1,-62.25 415,-56.25 412.9,-62.25 417.1,-62.25"/>
</g>
<!-- src/three&#45;bcf/topic/ -->
<g id="node7" class="node">
<title>src/three&#45;bcf/topic/</title>
<g id="a_node7"><a xlink:href="src/three-bcf/topic/" xlink:title="topic">
<polygon fill="#ffffcc" stroke="black" points="304,-268 252,-268 250,-266 250,-250 302,-250 304,-252 304,-268"/>
<polyline fill="none" stroke="black" points="302,-266 250,-266 "/>
<polyline fill="none" stroke="black" points="302,-266 302,-250 "/>
<polyline fill="none" stroke="black" points="302,-266 304,-268 "/>
<text text-anchor="start" x="267" y="-256.8" font-family="Helvetica,sans-Serif" font-size="9.00">topic</text>
</a>
</g>
</g>
<!-- src/contribute.ts&#45;&gt;src/three&#45;bcf/topic/ -->
<g id="edge4" class="edge">
<title>src/contribute.ts&#45;&gt;src/three&#45;bcf/topic/</title>
<path fill="none" stroke="#000000" stroke-width="2" stroke-opacity="0.200000" d="M230.12,-129.5C245.74,-129.5 261,-129.5 261,-129.5 261,-129.5 261,-243.69 261,-243.69"/>
<polygon fill="#000000" fill-opacity="0.200000" stroke="#000000" stroke-width="2" stroke-opacity="0.200000" points="258.9,-243.69 261,-249.69 263.1,-243.69 258.9,-243.69"/>
</g>
<!-- src/three/topic.ts -->
<g id="node8" class="node">
<title>src/three/topic.ts</title>
<g id="a_node8"><a xlink:href="src/three/topic.ts" xlink:title="topic.ts">
<path fill="#ddfeff" stroke="black" d="M298,-82C298,-82 256,-82 256,-82 253,-82 250,-79 250,-76 250,-76 250,-70 250,-70 250,-67 253,-64 256,-64 256,-64 298,-64 298,-64 301,-64 304,-67 304,-70 304,-70 304,-76 304,-76 304,-79 301,-82 298,-82"/>
<text text-anchor="start" x="262.5" y="-70.8" font-family="Helvetica,sans-Serif" font-size="9.00">topic.ts</text>
</a>
</g>
</g>
<!-- src/contribute.ts&#45;&gt;src/three/topic.ts -->
<g id="edge5" class="edge">
<title>src/contribute.ts&#45;&gt;src/three/topic.ts</title>
<path fill="none" stroke="#000000" stroke-width="2" stroke-opacity="0.200000" d="M230.11,-120.5C250.21,-120.5 272,-120.5 272,-120.5 272,-120.5 272,-88.16 272,-88.16"/>
<polygon fill="#000000" fill-opacity="0.200000" stroke="#000000" stroke-width="2" stroke-opacity="0.200000" points="274.1,-88.16 272,-82.16 269.9,-88.16 274.1,-88.16"/>
</g>
<!-- src/core/zod.ts -->
<g id="node10" class="node">
<title>src/core/zod.ts</title>
<g id="a_node10"><a xlink:href="src/core/zod.ts" xlink:title="zod.ts">
<path fill="#ddfeff" stroke="black" d="M524,-49C524,-49 482,-49 482,-49 479,-49 476,-46 476,-43 476,-43 476,-37 476,-37 476,-34 479,-31 482,-31 482,-31 524,-31 524,-31 527,-31 530,-34 530,-37 530,-37 530,-43 530,-43 530,-46 527,-49 524,-49"/>
<text text-anchor="start" x="490.5" y="-37.8" font-family="Helvetica,sans-Serif" font-size="9.00">zod.ts</text>
</a>
</g>
</g>
<!-- src/core/topic.ts&#45;&gt;src/core/zod.ts -->
<g id="edge8" class="edge">
<title>src/core/topic.ts&#45;&gt;src/core/zod.ts</title>
<path fill="none" stroke="#000000" stroke-width="2" stroke-opacity="0.200000" d="M457.91,-43.5C457.91,-43.5 469.55,-43.5 469.55,-43.5"/>
<polygon fill="#000000" fill-opacity="0.200000" stroke="#000000" stroke-width="2" stroke-opacity="0.200000" points="469.55,-45.6 475.55,-43.5 469.55,-41.4 469.55,-45.6"/>
</g>
<!-- src/three&#45;bcf/topic/&#45;&gt;src/types.ts -->
<g id="edge22" class="edge">
<title>src/three&#45;bcf/topic/&#45;&gt;src/types.ts</title>
<path fill="none" stroke="#000000" stroke-width="2" stroke-opacity="0.200000" d="M294,-249.97C294,-236.36 294,-212.17 294,-212.17 294,-212.17 321.71,-212.17 321.71,-212.17"/>
<polygon fill="#000000" fill-opacity="0.200000" stroke="#000000" stroke-width="2" stroke-opacity="0.200000" points="321.71,-214.27 327.71,-212.17 321.71,-210.07 321.71,-214.27"/>
</g>
<!-- src/three&#45;bcf/topic/&#45;&gt;src/constants.ts -->
<g id="edge21" class="edge">
<title>src/three&#45;bcf/topic/&#45;&gt;src/constants.ts</title>
<path fill="none" stroke="#000000" stroke-width="2" stroke-opacity="0.200000" d="M277,-268.29C277,-271.67 277,-274.67 277,-274.67 277,-274.67 391.95,-274.67 391.95,-274.67"/>
<polygon fill="#000000" fill-opacity="0.200000" stroke="#000000" stroke-width="2" stroke-opacity="0.200000" points="391.95,-276.77 397.95,-274.67 391.95,-272.57 391.95,-276.77"/>
</g>
<!-- src/three&#45;bcf/xml.ts -->
<g id="node15" class="node">
<title>src/three&#45;bcf/xml.ts</title>
<g id="a_node15"><a xlink:href="src/three-bcf/xml.ts" xlink:title="xml.ts">
<path fill="#ddfeff" stroke="black" d="M376,-268C376,-268 334,-268 334,-268 331,-268 328,-265 328,-262 328,-262 328,-256 328,-256 328,-253 331,-250 334,-250 334,-250 376,-250 376,-250 379,-250 382,-253 382,-256 382,-256 382,-262 382,-262 382,-265 379,-268 376,-268"/>
<text text-anchor="start" x="343" y="-256.8" font-family="Helvetica,sans-Serif" font-size="9.00">xml.ts</text>
</a>
</g>
</g>
<!-- src/three&#45;bcf/topic/&#45;&gt;src/three&#45;bcf/xml.ts -->
<g id="edge23" class="edge">
<title>src/three&#45;bcf/topic/&#45;&gt;src/three&#45;bcf/xml.ts</title>
<path fill="none" stroke="#000000" stroke-width="2" stroke-opacity="0.200000" d="M304.28,-259C304.28,-259 321.87,-259 321.87,-259"/>
<polygon fill="#000000" fill-opacity="0.200000" stroke="#000000" stroke-width="2" stroke-opacity="0.200000" points="321.87,-261.1 327.87,-259 321.87,-256.9 321.87,-261.1"/>
</g>
<!-- src/three/topic.ts&#45;&gt;src/types.ts -->
<g id="edge31" class="edge">
<title>src/three/topic.ts&#45;&gt;src/types.ts</title>
<path fill="none" stroke="#000000" stroke-width="2" stroke-opacity="0.200000" d="M283,-82.19C283,-111.5 283,-200.83 283,-200.83 283,-200.83 321.78,-200.83 321.78,-200.83"/>
<polygon fill="#000000" fill-opacity="0.200000" stroke="#000000" stroke-width="2" stroke-opacity="0.200000" points="321.78,-202.93 327.78,-200.83 321.78,-198.73 321.78,-202.93"/>
</g>
<!-- src/three/topic.ts&#45;&gt;src/constants.ts -->
<g id="edge29" class="edge">
<title>src/three/topic.ts&#45;&gt;src/constants.ts</title>
<path fill="none" stroke="#000000" stroke-width="2" stroke-opacity="0.200000" d="M304.31,-76C352.37,-76 447,-76 447,-76 447,-76 447,-265.93 447,-265.93"/>
<polygon fill="#000000" fill-opacity="0.200000" stroke="#000000" stroke-width="2" stroke-opacity="0.200000" points="444.9,-265.93 447,-271.93 449.1,-265.93 444.9,-265.93"/>
</g>
<!-- src/core/index.ts -->
<g id="node9" class="node">
<title>src/core/index.ts</title>
<g id="a_node9"><a xlink:href="src/core/index.ts" xlink:title="index.ts">
<path fill="#ddfeff" stroke="black" d="M376,-49C376,-49 334,-49 334,-49 331,-49 328,-46 328,-43 328,-43 328,-37 328,-37 328,-34 331,-31 334,-31 334,-31 376,-31 376,-31 379,-31 382,-34 382,-37 382,-37 382,-43 382,-43 382,-46 379,-49 376,-49"/>
<text text-anchor="start" x="339" y="-37.8" font-family="Helvetica,sans-Serif" font-size="9.00">index.ts</text>
</a>
</g>
</g>
<!-- src/three/topic.ts&#45;&gt;src/core/index.ts -->
<g id="edge30" class="edge">
<title>src/three/topic.ts&#45;&gt;src/core/index.ts</title>
<path fill="none" stroke="#000000" stroke-width="2" stroke-opacity="0.200000" d="M304.28,-70C326.77,-70 355,-70 355,-70 355,-70 355,-55.16 355,-55.16"/>
<polygon fill="#000000" fill-opacity="0.200000" stroke="#000000" stroke-width="2" stroke-opacity="0.200000" points="357.1,-55.16 355,-49.16 352.9,-55.16 357.1,-55.16"/>
</g>
<!-- src/core/index.ts&#45;&gt;src/core/topic.ts -->
<g id="edge6" class="edge">
<title>src/core/index.ts&#45;&gt;src/core/topic.ts</title>
<path fill="none" stroke="#000000" stroke-width="2" stroke-opacity="0.200000" d="M382.26,-43.5C382.26,-43.5 397.28,-43.5 397.28,-43.5"/>
<polygon fill="#000000" fill-opacity="0.200000" stroke="#000000" stroke-width="2" stroke-opacity="0.200000" points="397.28,-45.6 403.28,-43.5 397.28,-41.4 397.28,-45.6"/>
</g>
<!-- src/core/index.ts&#45;&gt;src/core/zod.ts -->
<g id="edge7" class="edge">
<title>src/core/index.ts&#45;&gt;src/core/zod.ts</title>
<path fill="none" stroke="#000000" stroke-width="2" stroke-opacity="0.200000" d="M382.15,-34.5C382.15,-34.5 469.78,-34.5 469.78,-34.5"/>
<polygon fill="#000000" fill-opacity="0.200000" stroke="#000000" stroke-width="2" stroke-opacity="0.200000" points="469.78,-36.6 475.78,-34.5 469.78,-32.4 469.78,-36.6"/>
</g>
<!-- src/index.ts -->
<g id="node11" class="node">
<title>src/index.ts</title>
<g id="a_node11"><a xlink:href="src/index.ts" xlink:title="index.ts">
<path fill="#ddfeff" stroke="black" d="M69.5,-154C69.5,-154 27.5,-154 27.5,-154 24.5,-154 21.5,-151 21.5,-148 21.5,-148 21.5,-142 21.5,-142 21.5,-139 24.5,-136 27.5,-136 27.5,-136 69.5,-136 69.5,-136 72.5,-136 75.5,-139 75.5,-142 75.5,-142 75.5,-148 75.5,-148 75.5,-151 72.5,-154 69.5,-154"/>
<text text-anchor="start" x="32.5" y="-142.8" font-family="Helvetica,sans-Serif" font-size="9.00">index.ts</text>
</a>
</g>
</g>
<!-- src/index.ts&#45;&gt;src/ThreeBCF.ts -->
<g id="edge12" class="edge">
<title>src/index.ts&#45;&gt;src/ThreeBCF.ts</title>
<path fill="none" stroke="#000000" stroke-width="2" stroke-opacity="0.200000" d="M75.55,-143C129.64,-143 246,-143 246,-143 246,-143 246,-54.23 246,-54.23"/>
<polygon fill="#000000" fill-opacity="0.200000" stroke="#000000" stroke-width="2" stroke-opacity="0.200000" points="248.1,-54.23 246,-48.23 243.9,-54.23 248.1,-54.23"/>
</g>
<!-- src/index.ts&#45;&gt;src/types.ts -->
<g id="edge13" class="edge">
<title>src/index.ts&#45;&gt;src/types.ts</title>
<path fill="none" stroke="#000000" stroke-width="2" stroke-opacity="0.200000" d="M49,-154.07C49,-171.18 49,-206.5 49,-206.5 49,-206.5 321.84,-206.5 321.84,-206.5"/>
<polygon fill="#000000" fill-opacity="0.200000" stroke="#000000" stroke-width="2" stroke-opacity="0.200000" points="321.84,-208.6 327.84,-206.5 321.84,-204.4 321.84,-208.6"/>
</g>
<!-- src/index.ts&#45;&gt;src/constants.ts -->
<g id="edge9" class="edge">
<title>src/index.ts&#45;&gt;src/constants.ts</title>
<path fill="none" stroke="#000000" stroke-width="2" stroke-opacity="0.200000" d="M35,-154.1C35,-183.99 35,-277.33 35,-277.33 35,-277.33 391.8,-277.33 391.8,-277.33"/>
<polygon fill="#000000" fill-opacity="0.200000" stroke="#000000" stroke-width="2" stroke-opacity="0.200000" points="391.8,-279.43 397.8,-277.33 391.8,-275.23 391.8,-279.43"/>
</g>
<!-- src/index.ts&#45;&gt;src/core/index.ts -->
<g id="edge10" class="edge">
<title>src/index.ts&#45;&gt;src/core/index.ts</title>
<path fill="none" stroke="#000000" stroke-width="2" stroke-opacity="0.200000" d="M75.68,-146.5C144.27,-146.5 319,-146.5 319,-146.5 319,-146.5 319,-39.5 319,-39.5 319,-39.5 321.71,-39.5 321.71,-39.5"/>
<polygon fill="#000000" fill-opacity="0.200000" stroke="#000000" stroke-width="2" stroke-opacity="0.200000" points="321.71,-41.6 327.71,-39.5 321.71,-37.4 321.71,-41.6"/>
</g>
<!-- src/three/index.ts -->
<g id="node12" class="node">
<title>src/three/index.ts</title>
<g id="a_node12"><a xlink:href="src/three/index.ts" xlink:title="index.ts">
<path fill="#ddfeff" stroke="black" d="M218,-82C218,-82 176,-82 176,-82 173,-82 170,-79 170,-76 170,-76 170,-70 170,-70 170,-67 173,-64 176,-64 176,-64 218,-64 218,-64 221,-64 224,-67 224,-70 224,-70 224,-76 224,-76 224,-79 221,-82 218,-82"/>
<text text-anchor="start" x="181" y="-70.8" font-family="Helvetica,sans-Serif" font-size="9.00">index.ts</text>
</a>
</g>
</g>
<!-- src/index.ts&#45;&gt;src/three/index.ts -->
<g id="edge11" class="edge">
<title>src/index.ts&#45;&gt;src/three/index.ts</title>
<path fill="none" stroke="#000000" stroke-width="2" stroke-opacity="0.200000" d="M75.63,-139.5C107.47,-139.5 156,-139.5 156,-139.5 156,-139.5 156,-73 156,-73 156,-73 163.88,-73 163.88,-73"/>
<polygon fill="#000000" fill-opacity="0.200000" stroke="#000000" stroke-width="2" stroke-opacity="0.200000" points="163.88,-75.1 169.88,-73 163.88,-70.9 163.88,-75.1"/>
</g>
<!-- src/worker/index.ts -->
<g id="node13" class="node">
<title>src/worker/index.ts</title>
<g id="a_node13"><a xlink:href="src/worker/index.ts" xlink:title="index.ts">
<path fill="#ddfeff" stroke="black" d="M145,-183C145,-183 103,-183 103,-183 100,-183 97,-180 97,-177 97,-177 97,-171 97,-171 97,-168 100,-165 103,-165 103,-165 145,-165 145,-165 148,-165 151,-168 151,-171 151,-171 151,-177 151,-177 151,-180 148,-183 145,-183"/>
<text text-anchor="start" x="108" y="-171.8" font-family="Helvetica,sans-Serif" font-size="9.00">index.ts</text>
</a>
</g>
</g>
<!-- src/index.ts&#45;&gt;src/worker/index.ts -->
<g id="edge14" class="edge">
<title>src/index.ts&#45;&gt;src/worker/index.ts</title>
<path fill="none" stroke="#000000" stroke-width="2" stroke-opacity="0.200000" d="M62,-154.18C62,-162.67 62,-174 62,-174 62,-174 90.99,-174 90.99,-174"/>
<polygon fill="#000000" fill-opacity="0.200000" stroke="#000000" stroke-width="2" stroke-opacity="0.200000" points="90.99,-176.1 96.99,-174 90.99,-171.9 90.99,-176.1"/>
</g>
<!-- src/three/index.ts&#45;&gt;src/three/topic.ts -->
<g id="edge28" class="edge">
<title>src/three/index.ts&#45;&gt;src/three/topic.ts</title>
<path fill="none" stroke="#000000" stroke-width="2" stroke-opacity="0.200000" d="M224.08,-73C224.08,-73 243.94,-73 243.94,-73"/>
<polygon fill="#000000" fill-opacity="0.200000" stroke="#000000" stroke-width="2" stroke-opacity="0.200000" points="243.94,-75.1 249.94,-73 243.94,-70.9 243.94,-75.1"/>
</g>
<!-- src/three&#45;bcf/zip.ts -->
<g id="node18" class="node">
<title>src/three&#45;bcf/zip.ts</title>
<g id="a_node18"><a xlink:href="src/three-bcf/zip.ts" xlink:title="zip.ts">
<path fill="#ddfeff" stroke="black" d="M218,-268C218,-268 176,-268 176,-268 173,-268 170,-265 170,-262 170,-262 170,-256 170,-256 170,-253 173,-250 176,-250 176,-250 218,-250 218,-250 221,-250 224,-253 224,-256 224,-256 224,-262 224,-262 224,-265 221,-268 218,-268"/>
<text text-anchor="start" x="186" y="-256.8" font-family="Helvetica,sans-Serif" font-size="9.00">zip.ts</text>
</a>
</g>
</g>
<!-- src/worker/index.ts&#45;&gt;src/three&#45;bcf/zip.ts -->
<g id="edge34" class="edge">
<title>src/worker/index.ts&#45;&gt;src/three&#45;bcf/zip.ts</title>
<path fill="none" stroke="#000000" stroke-width="2" stroke-opacity="0.200000" d="M124,-183.09C124,-205.57 124,-262 124,-262 124,-262 163.82,-262 163.82,-262"/>
<polygon fill="#000000" fill-opacity="0.200000" stroke="#000000" stroke-width="2" stroke-opacity="0.200000" points="163.82,-264.1 169.82,-262 163.82,-259.9 163.82,-264.1"/>
</g>
<!-- src/worker/utils.ts -->
<g id="node19" class="node">
<title>src/worker/utils.ts</title>
<g id="a_node19"><a xlink:href="src/worker/utils.ts" xlink:title="utils.ts">
<path fill="#ddfeff" stroke="black" d="M218,-168C218,-168 176,-168 176,-168 173,-168 170,-165 170,-162 170,-162 170,-156 170,-156 170,-153 173,-150 176,-150 176,-150 218,-150 218,-150 221,-150 224,-153 224,-156 224,-156 224,-162 224,-162 224,-165 221,-168 218,-168"/>
<text text-anchor="start" x="184" y="-156.8" font-family="Helvetica,sans-Serif" font-size="9.00">utils.ts</text>
</a>
</g>
</g>
<!-- src/worker/index.ts&#45;&gt;src/worker/utils.ts -->
<g id="edge35" class="edge">
<title>src/worker/index.ts&#45;&gt;src/worker/utils.ts</title>
<path fill="none" stroke="#000000" stroke-width="2" stroke-opacity="0.200000" d="M124,-164.69C124,-161.02 124,-157.67 124,-157.67 124,-157.67 163.82,-157.67 163.82,-157.67"/>
<polygon fill="#000000" fill-opacity="0.200000" stroke="#000000" stroke-width="2" stroke-opacity="0.200000" points="163.82,-159.77 169.82,-157.67 163.82,-155.57 163.82,-159.77"/>
</g>
<!-- src/worker/worker.ts -->
<g id="node21" class="node">
<title>src/worker/worker.ts</title>
<g id="a_node21"><a xlink:href="src/worker/worker.ts" xlink:title="worker.ts">
<path fill="#ddfeff" stroke="black" d="M218,-198C218,-198 176,-198 176,-198 173,-198 170,-195 170,-192 170,-192 170,-186 170,-186 170,-183 173,-180 176,-180 176,-180 218,-180 218,-180 221,-180 224,-183 224,-186 224,-186 224,-192 224,-192 224,-195 221,-198 218,-198"/>
<text text-anchor="start" x="178.5" y="-186.8" font-family="Helvetica,sans-Serif" font-size="9.00">worker.ts</text>
</a>
</g>
</g>
<!-- src/worker/index.ts&#45;&gt;src/worker/worker.ts -->
<g id="edge36" class="edge">
<title>src/worker/index.ts&#45;&gt;src/worker/worker.ts</title>
<path fill="none" stroke="#000000" stroke-width="2" stroke-opacity="0.200000" d="M151.18,-174C171.94,-174 197,-174 197,-174 197,-174 197,-174.58 197,-174.58"/>
<polygon fill="#000000" fill-opacity="0.200000" stroke="#000000" stroke-width="2" stroke-opacity="0.200000" points="194.9,-173.76 197,-179.76 199.1,-173.76 194.9,-173.76"/>
</g>
<!-- src/three&#45;bcf/BCF.ts -->
<g id="node14" class="node">
<title>src/three&#45;bcf/BCF.ts</title>
<g id="a_node14"><a xlink:href="src/three-bcf/BCF.ts" xlink:title="BCF.ts">
<path fill="#ddfeff" stroke="black" d="M298,-328C298,-328 256,-328 256,-328 253,-328 250,-325 250,-322 250,-322 250,-316 250,-316 250,-313 253,-310 256,-310 256,-310 298,-310 298,-310 301,-310 304,-313 304,-316 304,-316 304,-322 304,-322 304,-325 301,-328 298,-328"/>
<text text-anchor="start" x="263" y="-316.8" font-family="Helvetica,sans-Serif" font-size="9.00">BCF.ts</text>
</a>
</g>
</g>
<!-- src/three&#45;bcf/BCF.ts&#45;&gt;src/three&#45;bcf/xml.ts -->
<g id="edge15" class="edge">
<title>src/three&#45;bcf/BCF.ts&#45;&gt;src/three&#45;bcf/xml.ts</title>
<path fill="none" stroke="#000000" stroke-width="2" stroke-opacity="0.200000" d="M304.05,-319C329.59,-319 364,-319 364,-319 364,-319 364,-274.11 364,-274.11"/>
<polygon fill="#000000" fill-opacity="0.200000" stroke="#000000" stroke-width="2" stroke-opacity="0.200000" points="366.1,-274.11 364,-268.11 361.9,-274.11 366.1,-274.11"/>
</g>
<!-- src/three&#45;bcf/index.ts -->
<g id="node16" class="node">
<title>src/three&#45;bcf/index.ts</title>
<g id="a_node16"><a xlink:href="src/three-bcf/index.ts" xlink:title="index.ts">
<path fill="#ddfeff" stroke="black" d="M218,-298C218,-298 176,-298 176,-298 173,-298 170,-295 170,-292 170,-292 170,-286 170,-286 170,-283 173,-280 176,-280 176,-280 218,-280 218,-280 221,-280 224,-283 224,-286 224,-286 224,-292 224,-292 224,-295 221,-298 218,-298"/>
<text text-anchor="start" x="181" y="-286.8" font-family="Helvetica,sans-Serif" font-size="9.00">index.ts</text>
</a>
</g>
</g>
<!-- src/three&#45;bcf/index.ts&#45;&gt;src/three&#45;bcf/topic/ -->
<g id="edge18" class="edge">
<title>src/three&#45;bcf/index.ts&#45;&gt;src/three&#45;bcf/topic/</title>
<path fill="none" stroke="#000000" stroke-width="2" stroke-opacity="0.200000" d="M224.21,-284.5C230.3,-284.5 235,-284.5 235,-284.5 235,-284.5 235,-259 235,-259 235,-259 243.69,-259 243.69,-259"/>
<polygon fill="#000000" fill-opacity="0.200000" stroke="#000000" stroke-width="2" stroke-opacity="0.200000" points="243.69,-261.1 249.69,-259 243.69,-256.9 243.69,-261.1"/>
</g>
<!-- src/three&#45;bcf/index.ts&#45;&gt;src/three&#45;bcf/BCF.ts -->
<g id="edge16" class="edge">
<title>src/three&#45;bcf/index.ts&#45;&gt;src/three&#45;bcf/BCF.ts</title>
<path fill="none" stroke="#000000" stroke-width="2" stroke-opacity="0.200000" d="M197,-298.16C197,-306.99 197,-319 197,-319 197,-319 243.92,-319 243.92,-319"/>
<polygon fill="#000000" fill-opacity="0.200000" stroke="#000000" stroke-width="2" stroke-opacity="0.200000" points="243.92,-321.1 249.92,-319 243.92,-316.9 243.92,-321.1"/>
</g>
<!-- src/three&#45;bcf/root/ -->
<g id="node17" class="node">
<title>src/three&#45;bcf/root/</title>
<g id="a_node17"><a xlink:href="src/three-bcf/root/" xlink:title="root">
<polygon fill="#ffffcc" stroke="black" points="304,-298 252,-298 250,-296 250,-280 302,-280 304,-282 304,-298"/>
<polyline fill="none" stroke="black" points="302,-296 250,-296 "/>
<polyline fill="none" stroke="black" points="302,-296 302,-280 "/>
<polyline fill="none" stroke="black" points="302,-296 304,-298 "/>
<text text-anchor="start" x="269" y="-286.8" font-family="Helvetica,sans-Serif" font-size="9.00">root</text>
</a>
</g>
</g>
<!-- src/three&#45;bcf/index.ts&#45;&gt;src/three&#45;bcf/root/ -->
<g id="edge17" class="edge">
<title>src/three&#45;bcf/index.ts&#45;&gt;src/three&#45;bcf/root/</title>
<path fill="none" stroke="#000000" stroke-width="2" stroke-opacity="0.200000" d="M224.08,-293.5C224.08,-293.5 243.94,-293.5 243.94,-293.5"/>
<polygon fill="#000000" fill-opacity="0.200000" stroke="#000000" stroke-width="2" stroke-opacity="0.200000" points="243.94,-295.6 249.94,-293.5 243.94,-291.4 243.94,-295.6"/>
</g>
<!-- src/three&#45;bcf/root/&#45;&gt;src/constants.ts -->
<g id="edge19" class="edge">
<title>src/three&#45;bcf/root/&#45;&gt;src/constants.ts</title>
<path fill="none" stroke="#000000" stroke-width="2" stroke-opacity="0.200000" d="M304.09,-286.67C304.09,-286.67 391.82,-286.67 391.82,-286.67"/>
<polygon fill="#000000" fill-opacity="0.200000" stroke="#000000" stroke-width="2" stroke-opacity="0.200000" points="391.82,-288.77 397.82,-286.67 391.82,-284.57 391.82,-288.77"/>
</g>
<!-- src/three&#45;bcf/root/&#45;&gt;src/three&#45;bcf/xml.ts -->
<g id="edge20" class="edge">
<title>src/three&#45;bcf/root/&#45;&gt;src/three&#45;bcf/xml.ts</title>
<path fill="none" stroke="#000000" stroke-width="2" stroke-opacity="0.200000" d="M304.27,-283.33C323.56,-283.33 346,-283.33 346,-283.33 346,-283.33 346,-274.06 346,-274.06"/>
<polygon fill="#000000" fill-opacity="0.200000" stroke="#000000" stroke-width="2" stroke-opacity="0.200000" points="348.1,-274.06 346,-268.06 343.9,-274.06 348.1,-274.06"/>
</g>
<!-- src/three&#45;bcf/zip.ts&#45;&gt;src/types.ts -->
<g id="edge24" class="edge">
<title>src/three&#45;bcf/zip.ts&#45;&gt;src/types.ts</title>
<path fill="none" stroke="#000000" stroke-width="2" stroke-opacity="0.200000" d="M206,-249.89C206,-235.55 206,-209.33 206,-209.33 206,-209.33 321.67,-209.33 321.67,-209.33"/>
<polygon fill="#000000" fill-opacity="0.200000" stroke="#000000" stroke-width="2" stroke-opacity="0.200000" points="321.67,-211.43 327.67,-209.33 321.67,-207.23 321.67,-211.43"/>
</g>
<!-- src/three&#45;bcf/zip.ts&#45;&gt;src/three&#45;bcf/topic/ -->
<g id="edge27" class="edge">
<title>src/three&#45;bcf/zip.ts&#45;&gt;src/three&#45;bcf/topic/</title>
<path fill="none" stroke="#000000" stroke-width="2" stroke-opacity="0.200000" d="M224.08,-254.5C224.08,-254.5 243.94,-254.5 243.94,-254.5"/>
<polygon fill="#000000" fill-opacity="0.200000" stroke="#000000" stroke-width="2" stroke-opacity="0.200000" points="243.94,-256.6 249.94,-254.5 243.94,-252.4 243.94,-256.6"/>
</g>
<!-- src/three&#45;bcf/zip.ts&#45;&gt;src/three&#45;bcf/root/ -->
<g id="edge26" class="edge">
<title>src/three&#45;bcf/zip.ts&#45;&gt;src/three&#45;bcf/root/</title>
<path fill="none" stroke="#000000" stroke-width="2" stroke-opacity="0.200000" d="M224.31,-263.5C232.33,-263.5 239,-263.5 239,-263.5 239,-263.5 239,-289 239,-289 239,-289 243.79,-289 243.79,-289"/>
<polygon fill="#000000" fill-opacity="0.200000" stroke="#000000" stroke-width="2" stroke-opacity="0.200000" points="243.79,-291.1 249.79,-289 243.79,-286.9 243.79,-291.1"/>
</g>
<!-- src/three&#45;bcf/zip.ts&#45;&gt;src/worker/utils.ts -->
<g id="edge25" class="edge">
<title>src/three&#45;bcf/zip.ts&#45;&gt;src/worker/utils.ts</title>
<path fill="none" stroke="#000000" stroke-width="2" stroke-opacity="0.200000" d="M169.72,-256C164.18,-256 160,-256 160,-256 160,-256 160,-161.33 160,-161.33 160,-161.33 163.72,-161.33 163.72,-161.33"/>
<polygon fill="#000000" fill-opacity="0.200000" stroke="#000000" stroke-width="2" stroke-opacity="0.200000" points="163.72,-163.43 169.72,-161.33 163.72,-159.23 163.72,-163.43"/>
</g>
<!-- src/vite&#45;env.d.ts -->
<g id="node20" class="node">
<title>src/vite&#45;env.d.ts</title>
<g id="a_node20"><a xlink:href="src/vite-env.d.ts" xlink:title="vite&#45;env.d.ts">
<path fill="#ccffcc" stroke="black" d="M75,-115C75,-115 22,-115 22,-115 19,-115 16,-112 16,-109 16,-109 16,-103 16,-103 16,-100 19,-97 22,-97 22,-97 75,-97 75,-97 78,-97 81,-100 81,-103 81,-103 81,-109 81,-109 81,-112 78,-115 75,-115"/>
<text text-anchor="start" x="24" y="-103.8" font-family="Helvetica,sans-Serif" font-size="9.00">vite&#45;env.d.ts</text>
</a>
</g>
</g>
<!-- src/worker/worker.ts&#45;&gt;src/types.ts -->
<g id="edge38" class="edge">
<title>src/worker/worker.ts&#45;&gt;src/types.ts</title>
<path fill="none" stroke="#000000" stroke-width="2" stroke-opacity="0.200000" d="M224.16,-188.5C269.34,-188.5 355,-188.5 355,-188.5 355,-188.5 355,-190.84 355,-190.84"/>
<polygon fill="#000000" fill-opacity="0.200000" stroke="#000000" stroke-width="2" stroke-opacity="0.200000" points="352.9,-190.84 355,-196.84 357.1,-190.84 352.9,-190.84"/>
</g>
<!-- src/worker/worker.ts&#45;&gt;src/three&#45;bcf/zip.ts -->
<g id="edge37" class="edge">
<title>src/worker/worker.ts&#45;&gt;src/three&#45;bcf/zip.ts</title>
<path fill="none" stroke="#000000" stroke-width="2" stroke-opacity="0.200000" d="M188,-198.15C188,-198.15 188,-243.62 188,-243.62"/>
<polygon fill="#000000" fill-opacity="0.200000" stroke="#000000" stroke-width="2" stroke-opacity="0.200000" points="185.9,-243.62 188,-249.62 190.1,-243.62 185.9,-243.62"/>
</g>
</g>
</svg>
