<?xml version="1.0" encoding="UTF-8" standalone="no"?>
<!DOCTYPE svg PUBLIC "-//W3C//DTD SVG 1.1//EN"
 "http://www.w3.org/Graphics/SVG/1.1/DTD/svg11.dtd">
<!-- Generated by graphviz version 2.50.0 (20211204.2007)
 -->
<!-- Title: dependency&#45;cruiser output Pages: 1 -->
<svg width="580pt" height="538pt"
 viewBox="0.00 0.00 580.00 538.00" xmlns="http://www.w3.org/2000/svg" xmlns:xlink="http://www.w3.org/1999/xlink">
<g id="graph0" class="graph" transform="scale(1 1) rotate(0) translate(4 534)">
<title>dependency&#45;cruiser output</title>
<polygon fill="white" stroke="transparent" points="-4,4 -4,-534 576,-534 576,4 -4,4"/>
<g id="clust1" class="cluster">
<title>cluster_src</title>
<path fill="#ffffff" stroke="black" stroke-width="2" d="M20,-8C20,-8 552,-8 552,-8 558,-8 564,-14 564,-20 564,-20 564,-510 564,-510 564,-516 558,-522 552,-522 552,-522 20,-522 20,-522 14,-522 8,-516 8,-510 8,-510 8,-20 8,-20 8,-14 14,-8 20,-8"/>
<text text-anchor="middle" x="286" y="-510.8" font-family="Helvetica,sans-Serif" font-weight="bold" font-size="9.00">src</text>
</g>
<g id="clust2" class="cluster">
<title>cluster_src/core</title>
<path fill="#ffffff" stroke="black" stroke-width="2" d="M352,-16C352,-16 544,-16 544,-16 550,-16 556,-22 556,-28 556,-28 556,-70 556,-70 556,-76 550,-82 544,-82 544,-82 352,-82 352,-82 346,-82 340,-76 340,-70 340,-70 340,-28 340,-28 340,-22 346,-16 352,-16"/>
<text text-anchor="middle" x="448" y="-70.8" font-family="Helvetica,sans-Serif" font-weight="bold" font-size="9.00">core</text>
</g>
<g id="clust3" class="cluster">
<title>cluster_src/three&#45;bcf</title>
<path fill="#ffffff" stroke="black" stroke-width="2" d="M105,-244C105,-244 544,-244 544,-244 550,-244 556,-250 556,-256 556,-256 556,-458 556,-458 556,-464 550,-470 544,-470 544,-470 105,-470 105,-470 99,-470 93,-464 93,-458 93,-458 93,-256 93,-256 93,-250 99,-244 105,-244"/>
<text text-anchor="middle" x="324.5" y="-458.8" font-family="Helvetica,sans-Serif" font-weight="bold" font-size="9.00">three&#45;bcf</text>
</g>
<g id="clust4" class="cluster">
<title>cluster_src/three&#45;bcf/root</title>
<path fill="#ffffff" stroke="black" stroke-width="2" d="M185,-252C185,-252 320,-252 320,-252 326,-252 332,-258 332,-264 332,-264 332,-292 332,-292 332,-298 326,-304 320,-304 320,-304 185,-304 185,-304 179,-304 173,-298 173,-292 173,-292 173,-264 173,-264 173,-258 179,-252 185,-252"/>
<text text-anchor="middle" x="252.5" y="-292.8" font-family="Helvetica,sans-Serif" font-weight="bold" font-size="9.00">root</text>
</g>
<g id="clust5" class="cluster">
<title>cluster_src/three&#45;bcf/topic</title>
<path fill="#ffffff" stroke="black" stroke-width="2" d="M185,-338C185,-338 471.5,-338 471.5,-338 477.5,-338 483.5,-344 483.5,-350 483.5,-350 483.5,-406 483.5,-406 483.5,-412 477.5,-418 471.5,-418 471.5,-418 185,-418 185,-418 179,-418 173,-412 173,-406 173,-406 173,-350 173,-350 173,-344 179,-338 185,-338"/>
<text text-anchor="middle" x="328.25" y="-406.8" font-family="Helvetica,sans-Serif" font-weight="bold" font-size="9.00">topic</text>
</g>
<g id="clust6" class="cluster">
<title>cluster_src/three</title>
<path fill="#ffffff" stroke="black" stroke-width="2" d="M185,-54C185,-54 312,-54 312,-54 318,-54 324,-60 324,-66 324,-66 324,-94 324,-94 324,-100 318,-106 312,-106 312,-106 185,-106 185,-106 179,-106 173,-100 173,-94 173,-94 173,-66 173,-66 173,-60 179,-54 185,-54"/>
<text text-anchor="middle" x="248.5" y="-94.8" font-family="Helvetica,sans-Serif" font-weight="bold" font-size="9.00">three</text>
</g>
<g id="clust7" class="cluster">
<title>cluster_src/worker</title>
<path fill="#ffffff" stroke="black" stroke-width="2" d="M105,-114C105,-114 231,-114 231,-114 237,-114 243,-120 243,-126 243,-126 243,-184 243,-184 243,-190 237,-196 231,-196 231,-196 105,-196 105,-196 99,-196 93,-190 93,-184 93,-184 93,-126 93,-126 93,-120 99,-114 105,-114"/>
<text text-anchor="middle" x="168" y="-184.8" font-family="Helvetica,sans-Serif" font-weight="bold" font-size="9.00">worker</text>
</g>
<!-- src/ThreeBCF.ts -->
<g id="node1" class="node">
<title>src/ThreeBCF.ts</title>
<g id="a_node1"><a xlink:href="src/ThreeBCF.ts" xlink:title="ThreeBCF.ts">
<path fill="#ddfeff" stroke="black" d="M156,-222C156,-222 100,-222 100,-222 97,-222 94,-219 94,-216 94,-216 94,-210 94,-210 94,-207 97,-204 100,-204 100,-204 156,-204 156,-204 159,-204 162,-207 162,-210 162,-210 162,-216 162,-216 162,-219 159,-222 156,-222"/>
<text text-anchor="start" x="102" y="-210.8" font-family="Helvetica,sans-Serif" font-size="9.00">ThreeBCF.ts</text>
</a>
</g>
</g>
<!-- src/types.ts -->
<g id="node2" class="node">
<title>src/types.ts</title>
<g id="a_node2"><a xlink:href="src/types.ts" xlink:title="types.ts">
<path fill="#ddfeff" stroke="black" d="M396,-201C396,-201 354,-201 354,-201 351,-201 348,-198 348,-195 348,-195 348,-189 348,-189 348,-186 351,-183 354,-183 354,-183 396,-183 396,-183 399,-183 402,-186 402,-189 402,-189 402,-195 402,-195 402,-198 399,-201 396,-201"/>
<text text-anchor="start" x="359.5" y="-189.8" font-family="Helvetica,sans-Serif" font-size="9.00">types.ts</text>
</a>
</g>
</g>
<!-- src/ThreeBCF.ts&#45;&gt;src/types.ts -->
<g id="edge1" class="edge">
<title>src/ThreeBCF.ts&#45;&gt;src/types.ts</title>
<path fill="none" stroke="#000000" stroke-width="2" stroke-opacity="0.200000" d="M159,-203.58C159,-199.22 159,-195 159,-195 159,-195 341.64,-195 341.64,-195"/>
<polygon fill="#000000" fill-opacity="0.200000" stroke="#000000" stroke-width="2" stroke-opacity="0.200000" points="341.64,-197.1 347.64,-195 341.64,-192.9 341.64,-197.1"/>
</g>
<!-- src/version.ts -->
<g id="node3" class="node">
<title>src/version.ts</title>
<g id="a_node3"><a xlink:href="src/version.ts" xlink:title="version.ts">
<path fill="#ddfeff" stroke="black" d="M230,-222C230,-222 186,-222 186,-222 183,-222 180,-219 180,-216 180,-216 180,-210 180,-210 180,-207 183,-204 186,-204 186,-204 230,-204 230,-204 233,-204 236,-207 236,-210 236,-210 236,-216 236,-216 236,-219 233,-222 230,-222"/>
<text text-anchor="start" x="188" y="-210.8" font-family="Helvetica,sans-Serif" font-size="9.00">version.ts</text>
</a>
</g>
</g>
<!-- src/ThreeBCF.ts&#45;&gt;src/version.ts -->
<g id="edge2" class="edge">
<title>src/ThreeBCF.ts&#45;&gt;src/version.ts</title>
<path fill="none" stroke="#000000" stroke-width="2" stroke-opacity="0.200000" d="M162.39,-213C162.39,-213 173.65,-213 173.65,-213"/>
<polygon fill="#000000" fill-opacity="0.200000" stroke="#000000" stroke-width="2" stroke-opacity="0.200000" points="173.65,-215.1 179.65,-213 173.65,-210.9 173.65,-215.1"/>
</g>
<!-- src/constants.ts -->
<g id="node4" class="node">
<title>src/constants.ts</title>
<g id="a_node4"><a xlink:href="src/constants.ts" xlink:title="constants.ts">
<path fill="#ddfeff" stroke="black" d="M475,-201C475,-201 422,-201 422,-201 419,-201 416,-198 416,-195 416,-195 416,-189 416,-189 416,-186 419,-183 422,-183 422,-183 475,-183 475,-183 478,-183 481,-186 481,-189 481,-189 481,-195 481,-195 481,-198 478,-201 475,-201"/>
<text text-anchor="start" x="424" y="-189.8" font-family="Helvetica,sans-Serif" font-size="9.00">constants.ts</text>
</a>
</g>
</g>
<!-- src/types.ts&#45;&gt;src/constants.ts -->
<g id="edge41" class="edge">
<title>src/types.ts&#45;&gt;src/constants.ts</title>
<path fill="none" stroke="#000000" stroke-width="2" stroke-opacity="0.200000" d="M402.37,-192C402.37,-192 409.89,-192 409.89,-192"/>
<polygon fill="#000000" fill-opacity="0.200000" stroke="#000000" stroke-width="2" stroke-opacity="0.200000" points="409.89,-194.1 415.89,-192 409.89,-189.9 409.89,-194.1"/>
</g>
<!-- src/core/topic.ts -->
<g id="node6" class="node">
<title>src/core/topic.ts</title>
<g id="a_node6"><a xlink:href="src/core/topic.ts" xlink:title="topic.ts">
<path fill="#ddfeff" stroke="black" d="M469.5,-56C469.5,-56 427.5,-56 427.5,-56 424.5,-56 421.5,-53 421.5,-50 421.5,-50 421.5,-44 421.5,-44 421.5,-41 424.5,-38 427.5,-38 427.5,-38 469.5,-38 469.5,-38 472.5,-38 475.5,-41 475.5,-44 475.5,-44 475.5,-50 475.5,-50 475.5,-53 472.5,-56 469.5,-56"/>
<text text-anchor="start" x="434" y="-44.8" font-family="Helvetica,sans-Serif" font-size="9.00">topic.ts</text>
</a>
</g>
</g>
<!-- src/types.ts&#45;&gt;src/core/topic.ts -->
<g id="edge42" class="edge">
<title>src/types.ts&#45;&gt;src/core/topic.ts</title>
<path fill="none" stroke="#000000" stroke-width="2" stroke-opacity="0.200000" d="M384,-182.57C384,-151.58 384,-54.83 384,-54.83 384,-54.83 415.15,-54.83 415.15,-54.83"/>
<polygon fill="#000000" fill-opacity="0.200000" stroke="#000000" stroke-width="2" stroke-opacity="0.200000" points="415.15,-56.93 421.15,-54.83 415.15,-52.73 415.15,-56.93"/>
</g>
<!-- src/contribute.ts -->
<g id="node5" class="node">
<title>src/contribute.ts</title>
<g id="a_node5"><a xlink:href="src/contribute.ts" xlink:title="contribute.ts">
<path fill="#ddfeff" stroke="black" d="M235,-496C235,-496 181,-496 181,-496 178,-496 175,-493 175,-490 175,-490 175,-484 175,-484 175,-481 178,-478 181,-478 181,-478 235,-478 235,-478 238,-478 241,-481 241,-484 241,-484 241,-490 241,-490 241,-493 238,-496 235,-496"/>
<text text-anchor="start" x="183" y="-484.8" font-family="Helvetica,sans-Serif" font-size="9.00">contribute.ts</text>
</a>
</g>
</g>
<!-- src/contribute.ts&#45;&gt;src/core/topic.ts -->
<g id="edge3" class="edge">
<title>src/contribute.ts&#45;&gt;src/core/topic.ts</title>
<path fill="none" stroke="#000000" stroke-width="2" stroke-opacity="0.200000" d="M241.3,-488.8C279.22,-488.8 336,-488.8 336,-488.8 336,-488.8 336,-51.33 336,-51.33 336,-51.33 415.27,-51.33 415.27,-51.33"/>
<polygon fill="#000000" fill-opacity="0.200000" stroke="#000000" stroke-width="2" stroke-opacity="0.200000" points="415.27,-53.43 421.27,-51.33 415.27,-49.23 415.27,-53.43"/>
</g>
<!-- src/three&#45;bcf/topic/markup.ts -->
<g id="node7" class="node">
<title>src/three&#45;bcf/topic/markup.ts</title>
<g id="a_node7"><a xlink:href="src/three-bcf/topic/markup.ts" xlink:title="markup.ts">
<path fill="#ddfeff" stroke="black" d="M397,-378C397,-378 353,-378 353,-378 350,-378 347,-375 347,-372 347,-372 347,-366 347,-366 347,-363 350,-360 353,-360 353,-360 397,-360 397,-360 400,-360 403,-363 403,-366 403,-366 403,-372 403,-372 403,-375 400,-378 397,-378"/>
<text text-anchor="start" x="355" y="-366.8" font-family="Helvetica,sans-Serif" font-size="9.00">markup.ts</text>
</a>
</g>
</g>
<!-- src/contribute.ts&#45;&gt;src/three&#45;bcf/topic/markup.ts -->
<g id="edge4" class="edge">
<title>src/contribute.ts&#45;&gt;src/three&#45;bcf/topic/markup.ts</title>
<path fill="none" stroke="#000000" stroke-width="2" stroke-opacity="0.200000" d="M241.39,-492.4C290.13,-492.4 375,-492.4 375,-492.4 375,-492.4 375,-384.28 375,-384.28"/>
<polygon fill="#000000" fill-opacity="0.200000" stroke="#000000" stroke-width="2" stroke-opacity="0.200000" points="377.1,-384.28 375,-378.28 372.9,-384.28 377.1,-384.28"/>
</g>
<!-- src/three&#45;bcf/topic/viewpoint.ts -->
<g id="node8" class="node">
<title>src/three&#45;bcf/topic/viewpoint.ts</title>
<g id="a_node8"><a xlink:href="src/three-bcf/topic/viewpoint.ts" xlink:title="viewpoint.ts">
<path fill="#ddfeff" stroke="black" d="M315.5,-364C315.5,-364 262.5,-364 262.5,-364 259.5,-364 256.5,-361 256.5,-358 256.5,-358 256.5,-352 256.5,-352 256.5,-349 259.5,-346 262.5,-346 262.5,-346 315.5,-346 315.5,-346 318.5,-346 321.5,-349 321.5,-352 321.5,-352 321.5,-358 321.5,-358 321.5,-361 318.5,-364 315.5,-364"/>
<text text-anchor="start" x="264.5" y="-352.8" font-family="Helvetica,sans-Serif" font-size="9.00">viewpoint.ts</text>
</a>
</g>
</g>
<!-- src/contribute.ts&#45;&gt;src/three&#45;bcf/topic/viewpoint.ts -->
<g id="edge5" class="edge">
<title>src/contribute.ts&#45;&gt;src/three&#45;bcf/topic/viewpoint.ts</title>
<path fill="none" stroke="#000000" stroke-width="2" stroke-opacity="0.200000" d="M241.41,-485.2C263.73,-485.2 289,-485.2 289,-485.2 289,-485.2 289,-370.36 289,-370.36"/>
<polygon fill="#000000" fill-opacity="0.200000" stroke="#000000" stroke-width="2" stroke-opacity="0.200000" points="291.1,-370.36 289,-364.36 286.9,-370.36 291.1,-370.36"/>
</g>
<!-- src/three/topic.ts -->
<g id="node9" class="node">
<title>src/three/topic.ts</title>
<g id="a_node9"><a xlink:href="src/three/topic.ts" xlink:title="topic.ts">
<path fill="#ddfeff" stroke="black" d="M310,-80C310,-80 268,-80 268,-80 265,-80 262,-77 262,-74 262,-74 262,-68 262,-68 262,-65 265,-62 268,-62 268,-62 310,-62 310,-62 313,-62 316,-65 316,-68 316,-68 316,-74 316,-74 316,-77 313,-80 310,-80"/>
<text text-anchor="start" x="274.5" y="-68.8" font-family="Helvetica,sans-Serif" font-size="9.00">topic.ts</text>
</a>
</g>
</g>
<!-- src/contribute.ts&#45;&gt;src/three/topic.ts -->
<g id="edge6" class="edge">
<title>src/contribute.ts&#45;&gt;src/three/topic.ts</title>
<path fill="none" stroke="#000000" stroke-width="2" stroke-opacity="0.200000" d="M241.09,-481.6C246.3,-481.6 250,-481.6 250,-481.6 250,-481.6 250,-74 250,-74 250,-74 255.91,-74 255.91,-74"/>
<polygon fill="#000000" fill-opacity="0.200000" stroke="#000000" stroke-width="2" stroke-opacity="0.200000" points="255.91,-76.1 261.91,-74 255.91,-71.9 255.91,-76.1"/>
</g>
<!-- src/core/zod.ts -->
<g id="node11" class="node">
<title>src/core/zod.ts</title>
<g id="a_node11"><a xlink:href="src/core/zod.ts" xlink:title="zod.ts">
<path fill="#ddfeff" stroke="black" d="M542,-49C542,-49 500,-49 500,-49 497,-49 494,-46 494,-43 494,-43 494,-37 494,-37 494,-34 497,-31 500,-31 500,-31 542,-31 542,-31 545,-31 548,-34 548,-37 548,-37 548,-43 548,-43 548,-46 545,-49 542,-49"/>
<text text-anchor="start" x="508.5" y="-37.8" font-family="Helvetica,sans-Serif" font-size="9.00">zod.ts</text>
</a>
</g>
</g>
<!-- src/core/topic.ts&#45;&gt;src/core/zod.ts -->
<g id="edge9" class="edge">
<title>src/core/topic.ts&#45;&gt;src/core/zod.ts</title>
<path fill="none" stroke="#000000" stroke-width="2" stroke-opacity="0.200000" d="M475.91,-43.5C475.91,-43.5 487.55,-43.5 487.55,-43.5"/>
<polygon fill="#000000" fill-opacity="0.200000" stroke="#000000" stroke-width="2" stroke-opacity="0.200000" points="487.55,-45.6 493.55,-43.5 487.55,-41.4 487.55,-45.6"/>
</g>
<!-- src/three&#45;bcf/topic/markup.ts&#45;&gt;src/types.ts -->
<g id="edge27" class="edge">
<title>src/three&#45;bcf/topic/markup.ts&#45;&gt;src/types.ts</title>
<path fill="none" stroke="#000000" stroke-width="2" stroke-opacity="0.200000" d="M384,-359.98C384,-359.98 384,-207.21 384,-207.21"/>
<polygon fill="#000000" fill-opacity="0.200000" stroke="#000000" stroke-width="2" stroke-opacity="0.200000" points="386.1,-207.21 384,-201.21 381.9,-207.21 386.1,-207.21"/>
</g>
<!-- src/three&#45;bcf/topic/markup.ts&#45;&gt;src/constants.ts -->
<g id="edge26" class="edge">
<title>src/three&#45;bcf/topic/markup.ts&#45;&gt;src/constants.ts</title>
<path fill="none" stroke="#000000" stroke-width="2" stroke-opacity="0.200000" d="M403.04,-366C408.2,-366 412,-366 412,-366 412,-366 412,-196.5 412,-196.5 412,-196.5 412.39,-196.5 412.39,-196.5"/>
<polygon fill="#000000" fill-opacity="0.200000" stroke="#000000" stroke-width="2" stroke-opacity="0.200000" points="409.91,-198.6 415.91,-196.5 409.91,-194.4 409.91,-198.6"/>
</g>
<!-- src/three&#45;bcf/topic/topic.ts -->
<g id="node21" class="node">
<title>src/three&#45;bcf/topic/topic.ts</title>
<g id="a_node21"><a xlink:href="src/three-bcf/topic/topic.ts" xlink:title="topic.ts">
<path fill="#ddfeff" stroke="black" d="M469.5,-378C469.5,-378 427.5,-378 427.5,-378 424.5,-378 421.5,-375 421.5,-372 421.5,-372 421.5,-366 421.5,-366 421.5,-363 424.5,-360 427.5,-360 427.5,-360 469.5,-360 469.5,-360 472.5,-360 475.5,-363 475.5,-366 475.5,-366 475.5,-372 475.5,-372 475.5,-375 472.5,-378 469.5,-378"/>
<text text-anchor="start" x="434" y="-366.8" font-family="Helvetica,sans-Serif" font-size="9.00">topic.ts</text>
</a>
</g>
</g>
<!-- src/three&#45;bcf/topic/markup.ts&#45;&gt;src/three&#45;bcf/topic/topic.ts -->
<g id="edge28" class="edge">
<title>src/three&#45;bcf/topic/markup.ts&#45;&gt;src/three&#45;bcf/topic/topic.ts</title>
<path fill="none" stroke="#000000" stroke-width="2" stroke-opacity="0.200000" d="M403.21,-372C403.21,-372 415.46,-372 415.46,-372"/>
<polygon fill="#000000" fill-opacity="0.200000" stroke="#000000" stroke-width="2" stroke-opacity="0.200000" points="415.46,-374.1 421.46,-372 415.46,-369.9 415.46,-374.1"/>
</g>
<!-- src/three&#45;bcf/topic/viewpoint.ts&#45;&gt;src/types.ts -->
<g id="edge30" class="edge">
<title>src/three&#45;bcf/topic/viewpoint.ts&#45;&gt;src/types.ts</title>
<path fill="none" stroke="#000000" stroke-width="2" stroke-opacity="0.200000" d="M321.65,-349.5C342.64,-349.5 366,-349.5 366,-349.5 366,-349.5 366,-207.38 366,-207.38"/>
<polygon fill="#000000" fill-opacity="0.200000" stroke="#000000" stroke-width="2" stroke-opacity="0.200000" points="368.1,-207.38 366,-201.38 363.9,-207.38 368.1,-207.38"/>
</g>
<!-- src/three&#45;bcf/topic/viewpoint.ts&#45;&gt;src/three&#45;bcf/topic/markup.ts -->
<g id="edge31" class="edge">
<title>src/three&#45;bcf/topic/viewpoint.ts&#45;&gt;src/three&#45;bcf/topic/markup.ts</title>
<path fill="none" stroke="#000000" stroke-width="2" stroke-opacity="0.200000" d="M321.62,-356.5C352.12,-356.5 393,-356.5 393,-356.5 393,-356.5 393,-356.84 393,-356.84"/>
<polygon fill="#000000" fill-opacity="0.200000" stroke="#000000" stroke-width="2" stroke-opacity="0.200000" points="390.9,-353.92 393,-359.92 395.1,-353.92 390.9,-353.92"/>
</g>
<!-- src/three&#45;bcf/topic/viewpoint.ts&#45;&gt;src/three&#45;bcf/topic/topic.ts -->
<g id="edge32" class="edge">
<title>src/three&#45;bcf/topic/viewpoint.ts&#45;&gt;src/three&#45;bcf/topic/topic.ts</title>
<path fill="none" stroke="#000000" stroke-width="2" stroke-opacity="0.200000" d="M321.58,-353C370.69,-353 458,-353 458,-353 458,-353 458,-353.88 458,-353.88"/>
<polygon fill="#000000" fill-opacity="0.200000" stroke="#000000" stroke-width="2" stroke-opacity="0.200000" points="455.9,-353.88 458,-359.88 460.1,-353.88 455.9,-353.88"/>
</g>
<!-- src/three/topic.ts&#45;&gt;src/types.ts -->
<g id="edge40" class="edge">
<title>src/three/topic.ts&#45;&gt;src/types.ts</title>
<path fill="none" stroke="#000000" stroke-width="2" stroke-opacity="0.200000" d="M316.21,-74C341.41,-74 375,-74 375,-74 375,-74 375,-176.74 375,-176.74"/>
<polygon fill="#000000" fill-opacity="0.200000" stroke="#000000" stroke-width="2" stroke-opacity="0.200000" points="372.9,-176.74 375,-182.74 377.1,-176.74 372.9,-176.74"/>
</g>
<!-- src/three/topic.ts&#45;&gt;src/constants.ts -->
<g id="edge39" class="edge">
<title>src/three/topic.ts&#45;&gt;src/constants.ts</title>
<path fill="none" stroke="#000000" stroke-width="2" stroke-opacity="0.200000" d="M316.14,-68C361.79,-68 449,-68 449,-68 449,-68 449,-176.68 449,-176.68"/>
<polygon fill="#000000" fill-opacity="0.200000" stroke="#000000" stroke-width="2" stroke-opacity="0.200000" points="446.9,-176.68 449,-182.68 451.1,-176.68 446.9,-176.68"/>
</g>
<!-- src/core/index.ts -->
<g id="node10" class="node">
<title>src/core/index.ts</title>
<g id="a_node10"><a xlink:href="src/core/index.ts" xlink:title="index.ts">
<path fill="#ddfeff" stroke="black" d="M396,-42C396,-42 354,-42 354,-42 351,-42 348,-39 348,-36 348,-36 348,-30 348,-30 348,-27 351,-24 354,-24 354,-24 396,-24 396,-24 399,-24 402,-27 402,-30 402,-30 402,-36 402,-36 402,-39 399,-42 396,-42"/>
<text text-anchor="start" x="359" y="-30.8" font-family="Helvetica,sans-Serif" font-size="9.00">index.ts</text>
</a>
</g>
</g>
<!-- src/core/index.ts&#45;&gt;src/core/topic.ts -->
<g id="edge7" class="edge">
<title>src/core/index.ts&#45;&gt;src/core/topic.ts</title>
<path fill="none" stroke="#000000" stroke-width="2" stroke-opacity="0.200000" d="M393,-42.08C393,-44.02 393,-45.5 393,-45.5 393,-45.5 415.4,-45.5 415.4,-45.5"/>
<polygon fill="#000000" fill-opacity="0.200000" stroke="#000000" stroke-width="2" stroke-opacity="0.200000" points="415.4,-47.6 421.4,-45.5 415.4,-43.4 415.4,-47.6"/>
</g>
<!-- src/core/index.ts&#45;&gt;src/core/zod.ts -->
<g id="edge8" class="edge">
<title>src/core/index.ts&#45;&gt;src/core/zod.ts</title>
<path fill="none" stroke="#000000" stroke-width="2" stroke-opacity="0.200000" d="M402.12,-34.5C402.12,-34.5 487.53,-34.5 487.53,-34.5"/>
<polygon fill="#000000" fill-opacity="0.200000" stroke="#000000" stroke-width="2" stroke-opacity="0.200000" points="487.53,-36.6 493.53,-34.5 487.53,-32.4 487.53,-36.6"/>
</g>
<!-- src/index.ts -->
<g id="node12" class="node">
<title>src/index.ts</title>
<g id="a_node12"><a xlink:href="src/index.ts" xlink:title="index.ts">
<path fill="#ddfeff" stroke="black" d="M69.5,-67C69.5,-67 27.5,-67 27.5,-67 24.5,-67 21.5,-64 21.5,-61 21.5,-61 21.5,-55 21.5,-55 21.5,-52 24.5,-49 27.5,-49 27.5,-49 69.5,-49 69.5,-49 72.5,-49 75.5,-52 75.5,-55 75.5,-55 75.5,-61 75.5,-61 75.5,-64 72.5,-67 69.5,-67"/>
<text text-anchor="start" x="32.5" y="-55.8" font-family="Helvetica,sans-Serif" font-size="9.00">index.ts</text>
</a>
</g>
</g>
<!-- src/index.ts&#45;&gt;src/ThreeBCF.ts -->
<g id="edge13" class="edge">
<title>src/index.ts&#45;&gt;src/ThreeBCF.ts</title>
<path fill="none" stroke="#000000" stroke-width="2" stroke-opacity="0.200000" d="M75.57,-53.67C87.12,-53.67 98,-53.67 98,-53.67 98,-53.67 98,-197.98 98,-197.98"/>
<polygon fill="#000000" fill-opacity="0.200000" stroke="#000000" stroke-width="2" stroke-opacity="0.200000" points="95.9,-197.98 98,-203.98 100.1,-197.98 95.9,-197.98"/>
</g>
<!-- src/index.ts&#45;&gt;src/types.ts -->
<g id="edge14" class="edge">
<title>src/index.ts&#45;&gt;src/types.ts</title>
<path fill="none" stroke="#000000" stroke-width="2" stroke-opacity="0.200000" d="M35,-67C35,-96.6 35,-189 35,-189 35,-189 341.75,-189 341.75,-189"/>
<polygon fill="#000000" fill-opacity="0.200000" stroke="#000000" stroke-width="2" stroke-opacity="0.200000" points="341.75,-191.1 347.75,-189 341.75,-186.9 341.75,-191.1"/>
</g>
<!-- src/index.ts&#45;&gt;src/constants.ts -->
<g id="edge10" class="edge">
<title>src/index.ts&#45;&gt;src/constants.ts</title>
<path fill="none" stroke="#000000" stroke-width="2" stroke-opacity="0.200000" d="M75.52,-52.5C159.13,-52.5 408,-52.5 408,-52.5 408,-52.5 408,-187.5 408,-187.5 408,-187.5 409.81,-187.5 409.81,-187.5"/>
<polygon fill="#000000" fill-opacity="0.200000" stroke="#000000" stroke-width="2" stroke-opacity="0.200000" points="409.81,-189.6 415.81,-187.5 409.81,-185.4 409.81,-189.6"/>
</g>
<!-- src/index.ts&#45;&gt;src/core/index.ts -->
<g id="edge11" class="edge">
<title>src/index.ts&#45;&gt;src/core/index.ts</title>
<path fill="none" stroke="#000000" stroke-width="2" stroke-opacity="0.200000" d="M75.61,-50.17C150.89,-50.17 357,-50.17 357,-50.17 357,-50.17 357,-48.39 357,-48.39"/>
<polygon fill="#000000" fill-opacity="0.200000" stroke="#000000" stroke-width="2" stroke-opacity="0.200000" points="359.1,-48.39 357,-42.39 354.9,-48.39 359.1,-48.39"/>
</g>
<!-- src/three/index.ts -->
<g id="node13" class="node">
<title>src/three/index.ts</title>
<g id="a_node13"><a xlink:href="src/three/index.ts" xlink:title="index.ts">
<path fill="#ddfeff" stroke="black" d="M229,-80C229,-80 187,-80 187,-80 184,-80 181,-77 181,-74 181,-74 181,-68 181,-68 181,-65 184,-62 187,-62 187,-62 229,-62 229,-62 232,-62 235,-65 235,-68 235,-68 235,-74 235,-74 235,-77 232,-80 229,-80"/>
<text text-anchor="start" x="192" y="-68.8" font-family="Helvetica,sans-Serif" font-size="9.00">index.ts</text>
</a>
</g>
</g>
<!-- src/index.ts&#45;&gt;src/three/index.ts -->
<g id="edge12" class="edge">
<title>src/index.ts&#45;&gt;src/three/index.ts</title>
<path fill="none" stroke="#000000" stroke-width="2" stroke-opacity="0.200000" d="M49,-67.2C49,-70.53 49,-73.5 49,-73.5 49,-73.5 174.67,-73.5 174.67,-73.5"/>
<polygon fill="#000000" fill-opacity="0.200000" stroke="#000000" stroke-width="2" stroke-opacity="0.200000" points="174.67,-75.6 180.67,-73.5 174.67,-71.4 174.67,-75.6"/>
</g>
<!-- src/worker/index.ts -->
<g id="node14" class="node">
<title>src/worker/index.ts</title>
<g id="a_node14"><a xlink:href="src/worker/index.ts" xlink:title="index.ts">
<path fill="#ddfeff" stroke="black" d="M149,-155C149,-155 107,-155 107,-155 104,-155 101,-152 101,-149 101,-149 101,-143 101,-143 101,-140 104,-137 107,-137 107,-137 149,-137 149,-137 152,-137 155,-140 155,-143 155,-143 155,-149 155,-149 155,-152 152,-155 149,-155"/>
<text text-anchor="start" x="112" y="-143.8" font-family="Helvetica,sans-Serif" font-size="9.00">index.ts</text>
</a>
</g>
</g>
<!-- src/index.ts&#45;&gt;src/worker/index.ts -->
<g id="edge15" class="edge">
<title>src/index.ts&#45;&gt;src/worker/index.ts</title>
<path fill="none" stroke="#000000" stroke-width="2" stroke-opacity="0.200000" d="M62,-67.09C62,-89.57 62,-146 62,-146 62,-146 94.77,-146 94.77,-146"/>
<polygon fill="#000000" fill-opacity="0.200000" stroke="#000000" stroke-width="2" stroke-opacity="0.200000" points="94.77,-148.1 100.77,-146 94.77,-143.9 94.77,-148.1"/>
</g>
<!-- src/three/index.ts&#45;&gt;src/three/topic.ts -->
<g id="edge38" class="edge">
<title>src/three/index.ts&#45;&gt;src/three/topic.ts</title>
<path fill="none" stroke="#000000" stroke-width="2" stroke-opacity="0.200000" d="M235.42,-68C235.42,-68 255.88,-68 255.88,-68"/>
<polygon fill="#000000" fill-opacity="0.200000" stroke="#000000" stroke-width="2" stroke-opacity="0.200000" points="255.88,-70.1 261.88,-68 255.88,-65.9 255.88,-70.1"/>
</g>
<!-- src/three&#45;bcf/zip.ts -->
<g id="node22" class="node">
<title>src/three&#45;bcf/zip.ts</title>
<g id="a_node22"><a xlink:href="src/three-bcf/zip.ts" xlink:title="zip.ts">
<path fill="#ddfeff" stroke="black" d="M229,-330C229,-330 187,-330 187,-330 184,-330 181,-327 181,-324 181,-324 181,-318 181,-318 181,-315 184,-312 187,-312 187,-312 229,-312 229,-312 232,-312 235,-315 235,-318 235,-318 235,-324 235,-324 235,-327 232,-330 229,-330"/>
<text text-anchor="start" x="197" y="-318.8" font-family="Helvetica,sans-Serif" font-size="9.00">zip.ts</text>
</a>
</g>
</g>
<!-- src/worker/index.ts&#45;&gt;src/three&#45;bcf/zip.ts -->
<g id="edge43" class="edge">
<title>src/worker/index.ts&#45;&gt;src/three&#45;bcf/zip.ts</title>
<path fill="none" stroke="#000000" stroke-width="2" stroke-opacity="0.200000" d="M155.09,-149C161.74,-149 167,-149 167,-149 167,-149 167,-324 167,-324 167,-324 174.88,-324 174.88,-324"/>
<polygon fill="#000000" fill-opacity="0.200000" stroke="#000000" stroke-width="2" stroke-opacity="0.200000" points="174.88,-326.1 180.88,-324 174.88,-321.9 174.88,-326.1"/>
</g>
<!-- src/worker/utils.ts -->
<g id="node23" class="node">
<title>src/worker/utils.ts</title>
<g id="a_node23"><a xlink:href="src/worker/utils.ts" xlink:title="utils.ts">
<path fill="#ddfeff" stroke="black" d="M229,-170C229,-170 187,-170 187,-170 184,-170 181,-167 181,-164 181,-164 181,-158 181,-158 181,-155 184,-152 187,-152 187,-152 229,-152 229,-152 232,-152 235,-155 235,-158 235,-158 235,-164 235,-164 235,-167 232,-170 229,-170"/>
<text text-anchor="start" x="195" y="-158.8" font-family="Helvetica,sans-Serif" font-size="9.00">utils.ts</text>
</a>
</g>
</g>
<!-- src/worker/index.ts&#45;&gt;src/worker/utils.ts -->
<g id="edge44" class="edge">
<title>src/worker/index.ts&#45;&gt;src/worker/utils.ts</title>
<path fill="none" stroke="#000000" stroke-width="2" stroke-opacity="0.200000" d="M155.19,-146C181.36,-146 217,-146 217,-146 217,-146 217,-146.58 217,-146.58"/>
<polygon fill="#000000" fill-opacity="0.200000" stroke="#000000" stroke-width="2" stroke-opacity="0.200000" points="214.9,-145.76 217,-151.76 219.1,-145.76 214.9,-145.76"/>
</g>
<!-- src/worker/worker.ts -->
<g id="node25" class="node">
<title>src/worker/worker.ts</title>
<g id="a_node25"><a xlink:href="src/worker/worker.ts" xlink:title="worker.ts">
<path fill="#ddfeff" stroke="black" d="M229,-140C229,-140 187,-140 187,-140 184,-140 181,-137 181,-134 181,-134 181,-128 181,-128 181,-125 184,-122 187,-122 187,-122 229,-122 229,-122 232,-122 235,-125 235,-128 235,-128 235,-134 235,-134 235,-137 232,-140 229,-140"/>
<text text-anchor="start" x="189.5" y="-128.8" font-family="Helvetica,sans-Serif" font-size="9.00">worker.ts</text>
</a>
</g>
</g>
<!-- src/worker/index.ts&#45;&gt;src/worker/worker.ts -->
<g id="edge45" class="edge">
<title>src/worker/index.ts&#45;&gt;src/worker/worker.ts</title>
<path fill="none" stroke="#000000" stroke-width="2" stroke-opacity="0.200000" d="M155.25,-143C175.27,-143 199,-143 199,-143 199,-143 199,-142.72 199,-142.72"/>
<polygon fill="#000000" fill-opacity="0.200000" stroke="#000000" stroke-width="2" stroke-opacity="0.200000" points="201.1,-146.22 199,-140.22 196.9,-146.22 201.1,-146.22"/>
</g>
<!-- src/three&#45;bcf/BCF.ts -->
<g id="node15" class="node">
<title>src/three&#45;bcf/BCF.ts</title>
<g id="a_node15"><a xlink:href="src/three-bcf/BCF.ts" xlink:title="BCF.ts">
<path fill="#ddfeff" stroke="black" d="M229,-444C229,-444 187,-444 187,-444 184,-444 181,-441 181,-438 181,-438 181,-432 181,-432 181,-429 184,-426 187,-426 187,-426 229,-426 229,-426 232,-426 235,-429 235,-432 235,-432 235,-438 235,-438 235,-441 232,-444 229,-444"/>
<text text-anchor="start" x="194" y="-432.8" font-family="Helvetica,sans-Serif" font-size="9.00">BCF.ts</text>
</a>
</g>
</g>
<!-- src/three&#45;bcf/xml.ts -->
<g id="node16" class="node">
<title>src/three&#45;bcf/xml.ts</title>
<g id="a_node16"><a xlink:href="src/three-bcf/xml.ts" xlink:title="xml.ts">
<path fill="#ddfeff" stroke="black" d="M542,-378C542,-378 500,-378 500,-378 497,-378 494,-375 494,-372 494,-372 494,-366 494,-366 494,-363 497,-360 500,-360 500,-360 542,-360 542,-360 545,-360 548,-363 548,-366 548,-366 548,-372 548,-372 548,-375 545,-378 542,-378"/>
<text text-anchor="start" x="509" y="-366.8" font-family="Helvetica,sans-Serif" font-size="9.00">xml.ts</text>
</a>
</g>
</g>
<!-- src/three&#45;bcf/BCF.ts&#45;&gt;src/three&#45;bcf/xml.ts -->
<g id="edge16" class="edge">
<title>src/three&#45;bcf/BCF.ts&#45;&gt;src/three&#45;bcf/xml.ts</title>
<path fill="none" stroke="#000000" stroke-width="2" stroke-opacity="0.200000" d="M235.23,-435C311.38,-435 521,-435 521,-435 521,-435 521,-384.18 521,-384.18"/>
<polygon fill="#000000" fill-opacity="0.200000" stroke="#000000" stroke-width="2" stroke-opacity="0.200000" points="523.1,-384.18 521,-378.18 518.9,-384.18 523.1,-384.18"/>
</g>
<!-- src/three&#45;bcf/index.ts -->
<g id="node17" class="node">
<title>src/three&#45;bcf/index.ts</title>
<g id="a_node17"><a xlink:href="src/three-bcf/index.ts" xlink:title="index.ts">
<path fill="#ddfeff" stroke="black" d="M149,-386C149,-386 107,-386 107,-386 104,-386 101,-383 101,-380 101,-380 101,-374 101,-374 101,-371 104,-368 107,-368 107,-368 149,-368 149,-368 152,-368 155,-371 155,-374 155,-374 155,-380 155,-380 155,-383 152,-386 149,-386"/>
<text text-anchor="start" x="112" y="-374.8" font-family="Helvetica,sans-Serif" font-size="9.00">index.ts</text>
</a>
</g>
</g>
<!-- src/three&#45;bcf/index.ts&#45;&gt;src/three&#45;bcf/BCF.ts -->
<g id="edge17" class="edge">
<title>src/three&#45;bcf/index.ts&#45;&gt;src/three&#45;bcf/BCF.ts</title>
<path fill="none" stroke="#000000" stroke-width="2" stroke-opacity="0.200000" d="M128,-386.06C128,-402.38 128,-435 128,-435 128,-435 174.92,-435 174.92,-435"/>
<polygon fill="#000000" fill-opacity="0.200000" stroke="#000000" stroke-width="2" stroke-opacity="0.200000" points="174.92,-437.1 180.92,-435 174.92,-432.9 174.92,-437.1"/>
</g>
<!-- src/three&#45;bcf/root/index.ts -->
<g id="node18" class="node">
<title>src/three&#45;bcf/root/index.ts</title>
<g id="a_node18"><a xlink:href="src/three-bcf/root/index.ts" xlink:title="index.ts">
<path fill="#ddfeff" stroke="black" d="M229,-278C229,-278 187,-278 187,-278 184,-278 181,-275 181,-272 181,-272 181,-266 181,-266 181,-263 184,-260 187,-260 187,-260 229,-260 229,-260 232,-260 235,-263 235,-266 235,-266 235,-272 235,-272 235,-275 232,-278 229,-278"/>
<text text-anchor="start" x="192" y="-266.8" font-family="Helvetica,sans-Serif" font-size="9.00">index.ts</text>
</a>
</g>
</g>
<!-- src/three&#45;bcf/index.ts&#45;&gt;src/three&#45;bcf/root/index.ts -->
<g id="edge18" class="edge">
<title>src/three&#45;bcf/index.ts&#45;&gt;src/three&#45;bcf/root/index.ts</title>
<path fill="none" stroke="#000000" stroke-width="2" stroke-opacity="0.200000" d="M128,-367.79C128,-341.67 128,-269 128,-269 128,-269 174.92,-269 174.92,-269"/>
<polygon fill="#000000" fill-opacity="0.200000" stroke="#000000" stroke-width="2" stroke-opacity="0.200000" points="174.92,-271.1 180.92,-269 174.92,-266.9 174.92,-271.1"/>
</g>
<!-- src/three&#45;bcf/topic/index.ts -->
<g id="node19" class="node">
<title>src/three&#45;bcf/topic/index.ts</title>
<g id="a_node19"><a xlink:href="src/three-bcf/topic/index.ts" xlink:title="index.ts">
<path fill="#ddfeff" stroke="black" d="M229,-386C229,-386 187,-386 187,-386 184,-386 181,-383 181,-380 181,-380 181,-374 181,-374 181,-371 184,-368 187,-368 187,-368 229,-368 229,-368 232,-368 235,-371 235,-374 235,-374 235,-380 235,-380 235,-383 232,-386 229,-386"/>
<text text-anchor="start" x="192" y="-374.8" font-family="Helvetica,sans-Serif" font-size="9.00">index.ts</text>
</a>
</g>
</g>
<!-- src/three&#45;bcf/index.ts&#45;&gt;src/three&#45;bcf/topic/index.ts -->
<g id="edge19" class="edge">
<title>src/three&#45;bcf/index.ts&#45;&gt;src/three&#45;bcf/topic/index.ts</title>
<path fill="none" stroke="#000000" stroke-width="2" stroke-opacity="0.200000" d="M155.08,-377C155.08,-377 174.94,-377 174.94,-377"/>
<polygon fill="#000000" fill-opacity="0.200000" stroke="#000000" stroke-width="2" stroke-opacity="0.200000" points="174.94,-379.1 180.94,-377 174.94,-374.9 174.94,-379.1"/>
</g>
<!-- src/three&#45;bcf/root/bcf.version.ts -->
<g id="node20" class="node">
<title>src/three&#45;bcf/root/bcf.version.ts</title>
<g id="a_node20"><a xlink:href="src/three-bcf/root/bcf.version.ts" xlink:title="bcf.version.ts">
<path fill="#ddfeff" stroke="black" d="M318,-278C318,-278 260,-278 260,-278 257,-278 254,-275 254,-272 254,-272 254,-266 254,-266 254,-263 257,-260 260,-260 260,-260 318,-260 318,-260 321,-260 324,-263 324,-266 324,-266 324,-272 324,-272 324,-275 321,-278 318,-278"/>
<text text-anchor="start" x="262" y="-266.8" font-family="Helvetica,sans-Serif" font-size="9.00">bcf.version.ts</text>
</a>
</g>
</g>
<!-- src/three&#45;bcf/root/index.ts&#45;&gt;src/three&#45;bcf/root/bcf.version.ts -->
<g id="edge22" class="edge">
<title>src/three&#45;bcf/root/index.ts&#45;&gt;src/three&#45;bcf/root/bcf.version.ts</title>
<path fill="none" stroke="#000000" stroke-width="2" stroke-opacity="0.200000" d="M235.42,-269C235.42,-269 247.99,-269 247.99,-269"/>
<polygon fill="#000000" fill-opacity="0.200000" stroke="#000000" stroke-width="2" stroke-opacity="0.200000" points="247.99,-271.1 253.99,-269 247.99,-266.9 247.99,-271.1"/>
</g>
<!-- src/three&#45;bcf/topic/index.ts&#45;&gt;src/three&#45;bcf/topic/markup.ts -->
<g id="edge23" class="edge">
<title>src/three&#45;bcf/topic/index.ts&#45;&gt;src/three&#45;bcf/topic/markup.ts</title>
<path fill="none" stroke="#000000" stroke-width="2" stroke-opacity="0.200000" d="M235.2,-373C235.2,-373 340.97,-373 340.97,-373"/>
<polygon fill="#000000" fill-opacity="0.200000" stroke="#000000" stroke-width="2" stroke-opacity="0.200000" points="340.97,-375.1 346.97,-373 340.97,-370.9 340.97,-375.1"/>
</g>
<!-- src/three&#45;bcf/topic/index.ts&#45;&gt;src/three&#45;bcf/topic/viewpoint.ts -->
<g id="edge25" class="edge">
<title>src/three&#45;bcf/topic/index.ts&#45;&gt;src/three&#45;bcf/topic/viewpoint.ts</title>
<path fill="none" stroke="#000000" stroke-width="2" stroke-opacity="0.200000" d="M217,-367.95C217,-363.05 217,-358 217,-358 217,-358 250.37,-358 250.37,-358"/>
<polygon fill="#000000" fill-opacity="0.200000" stroke="#000000" stroke-width="2" stroke-opacity="0.200000" points="250.37,-360.1 256.37,-358 250.37,-355.9 250.37,-360.1"/>
</g>
<!-- src/three&#45;bcf/topic/index.ts&#45;&gt;src/three&#45;bcf/topic/topic.ts -->
<g id="edge24" class="edge">
<title>src/three&#45;bcf/topic/index.ts&#45;&gt;src/three&#45;bcf/topic/topic.ts</title>
<path fill="none" stroke="#000000" stroke-width="2" stroke-opacity="0.200000" d="M235.18,-382C298.2,-382 449,-382 449,-382 449,-382 449,-381.62 449,-381.62"/>
<polygon fill="#000000" fill-opacity="0.200000" stroke="#000000" stroke-width="2" stroke-opacity="0.200000" points="451.1,-384.17 449,-378.17 446.9,-384.17 451.1,-384.17"/>
</g>
<!-- src/three&#45;bcf/root/bcf.version.ts&#45;&gt;src/constants.ts -->
<g id="edge20" class="edge">
<title>src/three&#45;bcf/root/bcf.version.ts&#45;&gt;src/constants.ts</title>
<path fill="none" stroke="#000000" stroke-width="2" stroke-opacity="0.200000" d="M324.02,-266C368.63,-266 440,-266 440,-266 440,-266 440,-207.07 440,-207.07"/>
<polygon fill="#000000" fill-opacity="0.200000" stroke="#000000" stroke-width="2" stroke-opacity="0.200000" points="442.1,-207.07 440,-201.07 437.9,-207.07 442.1,-207.07"/>
</g>
<!-- src/three&#45;bcf/root/bcf.version.ts&#45;&gt;src/three&#45;bcf/xml.ts -->
<g id="edge21" class="edge">
<title>src/three&#45;bcf/root/bcf.version.ts&#45;&gt;src/three&#45;bcf/xml.ts</title>
<path fill="none" stroke="#000000" stroke-width="2" stroke-opacity="0.200000" d="M324.24,-272C389.14,-272 521,-272 521,-272 521,-272 521,-353.7 521,-353.7"/>
<polygon fill="#000000" fill-opacity="0.200000" stroke="#000000" stroke-width="2" stroke-opacity="0.200000" points="518.9,-353.7 521,-359.7 523.1,-353.7 518.9,-353.7"/>
</g>
<!-- src/three&#45;bcf/topic/topic.ts&#45;&gt;src/three&#45;bcf/xml.ts -->
<g id="edge29" class="edge">
<title>src/three&#45;bcf/topic/topic.ts&#45;&gt;src/three&#45;bcf/xml.ts</title>
<path fill="none" stroke="#000000" stroke-width="2" stroke-opacity="0.200000" d="M475.91,-369C475.91,-369 487.55,-369 487.55,-369"/>
<polygon fill="#000000" fill-opacity="0.200000" stroke="#000000" stroke-width="2" stroke-opacity="0.200000" points="487.55,-371.1 493.55,-369 487.55,-366.9 487.55,-371.1"/>
</g>
<!-- src/three&#45;bcf/zip.ts&#45;&gt;src/types.ts -->
<g id="edge33" class="edge">
<title>src/three&#45;bcf/zip.ts&#45;&gt;src/types.ts</title>
<path fill="none" stroke="#000000" stroke-width="2" stroke-opacity="0.200000" d="M235.33,-322.8C278.34,-322.8 357,-322.8 357,-322.8 357,-322.8 357,-207.41 357,-207.41"/>
<polygon fill="#000000" fill-opacity="0.200000" stroke="#000000" stroke-width="2" stroke-opacity="0.200000" points="359.1,-207.41 357,-201.41 354.9,-207.41 359.1,-207.41"/>
</g>
<!-- src/three&#45;bcf/zip.ts&#45;&gt;src/three&#45;bcf/topic/markup.ts -->
<g id="edge36" class="edge">
<title>src/three&#45;bcf/zip.ts&#45;&gt;src/three&#45;bcf/topic/markup.ts</title>
<path fill="none" stroke="#000000" stroke-width="2" stroke-opacity="0.200000" d="M235.2,-326.4C282.52,-326.4 375,-326.4 375,-326.4 375,-326.4 375,-353.97 375,-353.97"/>
<polygon fill="#000000" fill-opacity="0.200000" stroke="#000000" stroke-width="2" stroke-opacity="0.200000" points="372.9,-353.97 375,-359.97 377.1,-353.97 372.9,-353.97"/>
</g>
<!-- src/three&#45;bcf/zip.ts&#45;&gt;src/three&#45;bcf/topic/viewpoint.ts -->
<g id="edge37" class="edge">
<title>src/three&#45;bcf/zip.ts&#45;&gt;src/three&#45;bcf/topic/viewpoint.ts</title>
<path fill="none" stroke="#000000" stroke-width="2" stroke-opacity="0.200000" d="M199,-330.13C199,-339.28 199,-352 199,-352 199,-352 250.25,-352 250.25,-352"/>
<polygon fill="#000000" fill-opacity="0.200000" stroke="#000000" stroke-width="2" stroke-opacity="0.200000" points="250.25,-354.1 256.25,-352 250.25,-349.9 250.25,-354.1"/>
</g>
<!-- src/three&#45;bcf/zip.ts&#45;&gt;src/three&#45;bcf/root/bcf.version.ts -->
<g id="edge35" class="edge">
<title>src/three&#45;bcf/zip.ts&#45;&gt;src/three&#45;bcf/root/bcf.version.ts</title>
<path fill="none" stroke="#000000" stroke-width="2" stroke-opacity="0.200000" d="M235.42,-319.2C258.92,-319.2 289,-319.2 289,-319.2 289,-319.2 289,-284.21 289,-284.21"/>
<polygon fill="#000000" fill-opacity="0.200000" stroke="#000000" stroke-width="2" stroke-opacity="0.200000" points="291.1,-284.21 289,-278.21 286.9,-284.21 291.1,-284.21"/>
</g>
<!-- src/three&#45;bcf/zip.ts&#45;&gt;src/worker/utils.ts -->
<g id="edge34" class="edge">
<title>src/three&#45;bcf/zip.ts&#45;&gt;src/worker/utils.ts</title>
<path fill="none" stroke="#000000" stroke-width="2" stroke-opacity="0.200000" d="M180.72,-318C175.18,-318 171,-318 171,-318 171,-318 171,-162.5 171,-162.5 171,-162.5 174.72,-162.5 174.72,-162.5"/>
<polygon fill="#000000" fill-opacity="0.200000" stroke="#000000" stroke-width="2" stroke-opacity="0.200000" points="174.72,-164.6 180.72,-162.5 174.72,-160.4 174.72,-164.6"/>
</g>
<!-- src/vite&#45;env.d.ts -->
<g id="node24" class="node">
<title>src/vite&#45;env.d.ts</title>
<g id="a_node24"><a xlink:href="src/vite-env.d.ts" xlink:title="vite&#45;env.d.ts">
<path fill="#ccffcc" stroke="black" d="M75,-36C75,-36 22,-36 22,-36 19,-36 16,-33 16,-30 16,-30 16,-24 16,-24 16,-21 19,-18 22,-18 22,-18 75,-18 75,-18 78,-18 81,-21 81,-24 81,-24 81,-30 81,-30 81,-33 78,-36 75,-36"/>
<text text-anchor="start" x="24" y="-24.8" font-family="Helvetica,sans-Serif" font-size="9.00">vite&#45;env.d.ts</text>
</a>
</g>
</g>
<!-- src/worker/worker.ts&#45;&gt;src/types.ts -->
<g id="edge47" class="edge">
<title>src/worker/worker.ts&#45;&gt;src/types.ts</title>
<path fill="none" stroke="#000000" stroke-width="2" stroke-opacity="0.200000" d="M235.16,-128C280.34,-128 366,-128 366,-128 366,-128 366,-176.83 366,-176.83"/>
<polygon fill="#000000" fill-opacity="0.200000" stroke="#000000" stroke-width="2" stroke-opacity="0.200000" points="363.9,-176.83 366,-182.83 368.1,-176.83 363.9,-176.83"/>
</g>
<!-- src/worker/worker.ts&#45;&gt;src/three&#45;bcf/zip.ts -->
<g id="edge46" class="edge">
<title>src/worker/worker.ts&#45;&gt;src/three&#45;bcf/zip.ts</title>
<path fill="none" stroke="#000000" stroke-width="2" stroke-opacity="0.200000" d="M235.21,-134C241.3,-134 246,-134 246,-134 246,-134 246,-315.6 246,-315.6 246,-315.6 241.21,-315.6 241.21,-315.6"/>
<polygon fill="#000000" fill-opacity="0.200000" stroke="#000000" stroke-width="2" stroke-opacity="0.200000" points="241.21,-313.5 235.21,-315.6 241.21,-317.7 241.21,-313.5"/>
</g>
</g>
</svg>
