<?xml version="1.0" encoding="UTF-8" standalone="no"?>
<!DOCTYPE svg PUBLIC "-//W3C//DTD SVG 1.1//EN"
 "http://www.w3.org/Graphics/SVG/1.1/DTD/svg11.dtd">
<!-- Generated by graphviz version 2.50.0 (20211204.2007)
 -->
<!-- Title: dependency&#45;cruiser output Pages: 1 -->
<svg width="562pt" height="396pt"
 viewBox="0.00 0.00 562.00 396.00" xmlns="http://www.w3.org/2000/svg" xmlns:xlink="http://www.w3.org/1999/xlink">
<g id="graph0" class="graph" transform="scale(1 1) rotate(0) translate(4 392)">
<title>dependency&#45;cruiser output</title>
<polygon fill="white" stroke="transparent" points="-4,4 -4,-392 558,-392 558,4 -4,4"/>
<g id="clust1" class="cluster">
<title>cluster_src</title>
<path fill="#ffffff" stroke="black" stroke-width="2" d="M20,-8C20,-8 534,-8 534,-8 540,-8 546,-14 546,-20 546,-20 546,-368 546,-368 546,-374 540,-380 534,-380 534,-380 20,-380 20,-380 14,-380 8,-374 8,-368 8,-368 8,-20 8,-20 8,-14 14,-8 20,-8"/>
<text text-anchor="middle" x="277" y="-368.8" font-family="Helvetica,sans-Serif" font-weight="bold" font-size="9.00">src</text>
</g>
<g id="clust2" class="cluster">
<title>cluster_src/core</title>
<path fill="#ffffff" stroke="black" stroke-width="2" d="M332,-16C332,-16 526,-16 526,-16 532,-16 538,-22 538,-28 538,-28 538,-70 538,-70 538,-76 532,-82 526,-82 526,-82 332,-82 332,-82 326,-82 320,-76 320,-70 320,-70 320,-28 320,-28 320,-22 326,-16 332,-16"/>
<text text-anchor="middle" x="429" y="-70.8" font-family="Helvetica,sans-Serif" font-weight="bold" font-size="9.00">core</text>
</g>
<g id="clust3" class="cluster">
<title>cluster_src/three&#45;bcf</title>
<path fill="#ffffff" stroke="black" stroke-width="2" d="M174,-146C174,-146 378,-146 378,-146 384,-146 390,-152 390,-158 390,-158 390,-246 390,-246 390,-252 384,-258 378,-258 378,-258 174,-258 174,-258 168,-258 162,-252 162,-246 162,-246 162,-158 162,-158 162,-152 168,-146 174,-146"/>
<text text-anchor="middle" x="276" y="-246.8" font-family="Helvetica,sans-Serif" font-weight="bold" font-size="9.00">three&#45;bcf</text>
</g>
<g id="clust4" class="cluster">
<title>cluster_src/three</title>
<path fill="#ffffff" stroke="black" stroke-width="2" d="M174,-292C174,-292 300,-292 300,-292 306,-292 312,-298 312,-304 312,-304 312,-332 312,-332 312,-338 306,-344 300,-344 300,-344 174,-344 174,-344 168,-344 162,-338 162,-332 162,-332 162,-304 162,-304 162,-298 168,-292 174,-292"/>
<text text-anchor="middle" x="237" y="-332.8" font-family="Helvetica,sans-Serif" font-weight="bold" font-size="9.00">three</text>
</g>
<g id="clust5" class="cluster">
<title>cluster_src/worker</title>
<path fill="#ffffff" stroke="black" stroke-width="2" d="M101,-46C101,-46 220,-46 220,-46 226,-46 232,-52 232,-58 232,-58 232,-116 232,-116 232,-122 226,-128 220,-128 220,-128 101,-128 101,-128 95,-128 89,-122 89,-116 89,-116 89,-58 89,-58 89,-52 95,-46 101,-46"/>
<text text-anchor="middle" x="160.5" y="-116.8" font-family="Helvetica,sans-Serif" font-weight="bold" font-size="9.00">worker</text>
</g>
<!-- src/ThreeBCF.ts -->
<g id="node1" class="node">
<title>src/ThreeBCF.ts</title>
<g id="a_node1"><a xlink:href="src/ThreeBCF.ts" xlink:title="ThreeBCF.ts">
<path fill="#ddfeff" stroke="black" d="M305,-100C305,-100 249,-100 249,-100 246,-100 243,-97 243,-94 243,-94 243,-88 243,-88 243,-85 246,-82 249,-82 249,-82 305,-82 305,-82 308,-82 311,-85 311,-88 311,-88 311,-94 311,-94 311,-97 308,-100 305,-100"/>
<text text-anchor="start" x="251" y="-88.8" font-family="Helvetica,sans-Serif" font-size="9.00">ThreeBCF.ts</text>
</a>
</g>
</g>
<!-- src/types.ts -->
<g id="node2" class="node">
<title>src/types.ts</title>
<g id="a_node2"><a xlink:href="src/types.ts" xlink:title="types.ts">
<path fill="#ddfeff" stroke="black" d="M376,-138C376,-138 334,-138 334,-138 331,-138 328,-135 328,-132 328,-132 328,-126 328,-126 328,-123 331,-120 334,-120 334,-120 376,-120 376,-120 379,-120 382,-123 382,-126 382,-126 382,-132 382,-132 382,-135 379,-138 376,-138"/>
<text text-anchor="start" x="339.5" y="-126.8" font-family="Helvetica,sans-Serif" font-size="9.00">types.ts</text>
</a>
</g>
</g>
<!-- src/ThreeBCF.ts&#45;&gt;src/types.ts -->
<g id="edge1" class="edge">
<title>src/ThreeBCF.ts&#45;&gt;src/types.ts</title>
<path fill="none" stroke="#000000" stroke-width="2" stroke-opacity="0.200000" d="M309,-100.28C309,-110.75 309,-126.33 309,-126.33 309,-126.33 321.98,-126.33 321.98,-126.33"/>
<polygon fill="#000000" fill-opacity="0.200000" stroke="#000000" stroke-width="2" stroke-opacity="0.200000" points="321.98,-128.43 327.98,-126.33 321.98,-124.23 321.98,-128.43"/>
</g>
<!-- src/version.ts -->
<g id="node3" class="node">
<title>src/version.ts</title>
<g id="a_node3"><a xlink:href="src/version.ts" xlink:title="version.ts">
<path fill="#ddfeff" stroke="black" d="M377,-108C377,-108 333,-108 333,-108 330,-108 327,-105 327,-102 327,-102 327,-96 327,-96 327,-93 330,-90 333,-90 333,-90 377,-90 377,-90 380,-90 383,-93 383,-96 383,-96 383,-102 383,-102 383,-105 380,-108 377,-108"/>
<text text-anchor="start" x="335" y="-96.8" font-family="Helvetica,sans-Serif" font-size="9.00">version.ts</text>
</a>
</g>
</g>
<!-- src/ThreeBCF.ts&#45;&gt;src/version.ts -->
<g id="edge2" class="edge">
<title>src/ThreeBCF.ts&#45;&gt;src/version.ts</title>
<path fill="none" stroke="#000000" stroke-width="2" stroke-opacity="0.200000" d="M311.44,-95C311.44,-95 320.59,-95 320.59,-95"/>
<polygon fill="#000000" fill-opacity="0.200000" stroke="#000000" stroke-width="2" stroke-opacity="0.200000" points="320.59,-97.1 326.59,-95 320.59,-92.9 320.59,-97.1"/>
</g>
<!-- src/constants.ts -->
<g id="node4" class="node">
<title>src/constants.ts</title>
<g id="a_node4"><a xlink:href="src/constants.ts" xlink:title="constants.ts">
<path fill="#ddfeff" stroke="black" d="M457,-232C457,-232 404,-232 404,-232 401,-232 398,-229 398,-226 398,-226 398,-220 398,-220 398,-217 401,-214 404,-214 404,-214 457,-214 457,-214 460,-214 463,-217 463,-220 463,-220 463,-226 463,-226 463,-229 460,-232 457,-232"/>
<text text-anchor="start" x="406" y="-220.8" font-family="Helvetica,sans-Serif" font-size="9.00">constants.ts</text>
</a>
</g>
</g>
<!-- src/types.ts&#45;&gt;src/constants.ts -->
<g id="edge31" class="edge">
<title>src/types.ts&#45;&gt;src/constants.ts</title>
<path fill="none" stroke="#000000" stroke-width="2" stroke-opacity="0.200000" d="M382.25,-132C402.27,-132 426,-132 426,-132 426,-132 426,-207.94 426,-207.94"/>
<polygon fill="#000000" fill-opacity="0.200000" stroke="#000000" stroke-width="2" stroke-opacity="0.200000" points="423.9,-207.94 426,-213.94 428.1,-207.94 423.9,-207.94"/>
</g>
<!-- src/core/topic.ts -->
<g id="node6" class="node">
<title>src/core/topic.ts</title>
<g id="a_node6"><a xlink:href="src/core/topic.ts" xlink:title="topic.ts">
<path fill="#ddfeff" stroke="black" d="M451.5,-56C451.5,-56 409.5,-56 409.5,-56 406.5,-56 403.5,-53 403.5,-50 403.5,-50 403.5,-44 403.5,-44 403.5,-41 406.5,-38 409.5,-38 409.5,-38 451.5,-38 451.5,-38 454.5,-38 457.5,-41 457.5,-44 457.5,-44 457.5,-50 457.5,-50 457.5,-53 454.5,-56 451.5,-56"/>
<text text-anchor="start" x="416" y="-44.8" font-family="Helvetica,sans-Serif" font-size="9.00">topic.ts</text>
</a>
</g>
</g>
<!-- src/types.ts&#45;&gt;src/core/topic.ts -->
<g id="edge32" class="edge">
<title>src/types.ts&#45;&gt;src/core/topic.ts</title>
<path fill="none" stroke="#000000" stroke-width="2" stroke-opacity="0.200000" d="M382.11,-126C409.24,-126 447,-126 447,-126 447,-126 447,-62.06 447,-62.06"/>
<polygon fill="#000000" fill-opacity="0.200000" stroke="#000000" stroke-width="2" stroke-opacity="0.200000" points="449.1,-62.06 447,-56.06 444.9,-62.06 449.1,-62.06"/>
</g>
<!-- src/contribute.ts -->
<g id="node5" class="node">
<title>src/contribute.ts</title>
<g id="a_node5"><a xlink:href="src/contribute.ts" xlink:title="contribute.ts">
<path fill="#ddfeff" stroke="black" d="M224,-284C224,-284 170,-284 170,-284 167,-284 164,-281 164,-278 164,-278 164,-272 164,-272 164,-269 167,-266 170,-266 170,-266 224,-266 224,-266 227,-266 230,-269 230,-272 230,-272 230,-278 230,-278 230,-281 227,-284 224,-284"/>
<text text-anchor="start" x="172" y="-272.8" font-family="Helvetica,sans-Serif" font-size="9.00">contribute.ts</text>
</a>
</g>
</g>
<!-- src/contribute.ts&#45;&gt;src/core/topic.ts -->
<g id="edge3" class="edge">
<title>src/contribute.ts&#45;&gt;src/core/topic.ts</title>
<path fill="none" stroke="#000000" stroke-width="2" stroke-opacity="0.200000" d="M230.04,-270.5C232.47,-270.5 234,-270.5 234,-270.5 234,-270.5 234,-48 234,-48 234,-48 397.18,-48 397.18,-48"/>
<polygon fill="#000000" fill-opacity="0.200000" stroke="#000000" stroke-width="2" stroke-opacity="0.200000" points="397.18,-50.1 403.18,-48 397.18,-45.9 397.18,-50.1"/>
</g>
<!-- src/three&#45;bcf/topic/ -->
<g id="node7" class="node">
<title>src/three&#45;bcf/topic/</title>
<g id="a_node7"><a xlink:href="src/three-bcf/topic/" xlink:title="topic">
<polygon fill="#ffffcc" stroke="black" points="304,-232 252,-232 250,-230 250,-214 302,-214 304,-216 304,-232"/>
<polyline fill="none" stroke="black" points="302,-230 250,-230 "/>
<polyline fill="none" stroke="black" points="302,-230 302,-214 "/>
<polyline fill="none" stroke="black" points="302,-230 304,-232 "/>
<text text-anchor="start" x="267" y="-220.8" font-family="Helvetica,sans-Serif" font-size="9.00">topic</text>
</a>
</g>
</g>
<!-- src/contribute.ts&#45;&gt;src/three&#45;bcf/topic/ -->
<g id="edge4" class="edge">
<title>src/contribute.ts&#45;&gt;src/three&#45;bcf/topic/</title>
<path fill="none" stroke="#000000" stroke-width="2" stroke-opacity="0.200000" d="M230.01,-275C248.55,-275 268,-275 268,-275 268,-275 268,-238.06 268,-238.06"/>
<polygon fill="#000000" fill-opacity="0.200000" stroke="#000000" stroke-width="2" stroke-opacity="0.200000" points="270.1,-238.06 268,-232.06 265.9,-238.06 270.1,-238.06"/>
</g>
<!-- src/three/topic.ts -->
<g id="node8" class="node">
<title>src/three/topic.ts</title>
<g id="a_node8"><a xlink:href="src/three/topic.ts" xlink:title="topic.ts">
<path fill="#ddfeff" stroke="black" d="M298,-318C298,-318 256,-318 256,-318 253,-318 250,-315 250,-312 250,-312 250,-306 250,-306 250,-303 253,-300 256,-300 256,-300 298,-300 298,-300 301,-300 304,-303 304,-306 304,-306 304,-312 304,-312 304,-315 301,-318 298,-318"/>
<text text-anchor="start" x="262.5" y="-306.8" font-family="Helvetica,sans-Serif" font-size="9.00">topic.ts</text>
</a>
</g>
</g>
<!-- src/contribute.ts&#45;&gt;src/three/topic.ts -->
<g id="edge5" class="edge">
<title>src/contribute.ts&#45;&gt;src/three/topic.ts</title>
<path fill="none" stroke="#000000" stroke-width="2" stroke-opacity="0.200000" d="M230.14,-279.5C255.44,-279.5 286,-279.5 286,-279.5 286,-279.5 286,-293.99 286,-293.99"/>
<polygon fill="#000000" fill-opacity="0.200000" stroke="#000000" stroke-width="2" stroke-opacity="0.200000" points="283.9,-293.99 286,-299.99 288.1,-293.99 283.9,-293.99"/>
</g>
<!-- src/core/zod.ts -->
<g id="node10" class="node">
<title>src/core/zod.ts</title>
<g id="a_node10"><a xlink:href="src/core/zod.ts" xlink:title="zod.ts">
<path fill="#ddfeff" stroke="black" d="M524,-49C524,-49 482,-49 482,-49 479,-49 476,-46 476,-43 476,-43 476,-37 476,-37 476,-34 479,-31 482,-31 482,-31 524,-31 524,-31 527,-31 530,-34 530,-37 530,-37 530,-43 530,-43 530,-46 527,-49 524,-49"/>
<text text-anchor="start" x="490.5" y="-37.8" font-family="Helvetica,sans-Serif" font-size="9.00">zod.ts</text>
</a>
</g>
</g>
<!-- src/core/topic.ts&#45;&gt;src/core/zod.ts -->
<g id="edge8" class="edge">
<title>src/core/topic.ts&#45;&gt;src/core/zod.ts</title>
<path fill="none" stroke="#000000" stroke-width="2" stroke-opacity="0.200000" d="M457.91,-43.5C457.91,-43.5 469.55,-43.5 469.55,-43.5"/>
<polygon fill="#000000" fill-opacity="0.200000" stroke="#000000" stroke-width="2" stroke-opacity="0.200000" points="469.55,-45.6 475.55,-43.5 469.55,-41.4 469.55,-45.6"/>
</g>
<!-- src/three&#45;bcf/topic/&#45;&gt;src/types.ts -->
<g id="edge22" class="edge">
<title>src/three&#45;bcf/topic/&#45;&gt;src/types.ts</title>
<path fill="none" stroke="#000000" stroke-width="2" stroke-opacity="0.200000" d="M304.23,-218.5C305.95,-218.5 307,-218.5 307,-218.5 307,-218.5 307,-133.33 307,-133.33 307,-133.33 321.91,-133.33 321.91,-133.33"/>
<polygon fill="#000000" fill-opacity="0.200000" stroke="#000000" stroke-width="2" stroke-opacity="0.200000" points="321.91,-135.43 327.91,-133.33 321.91,-131.23 321.91,-135.43"/>
</g>
<!-- src/three&#45;bcf/topic/&#45;&gt;src/constants.ts -->
<g id="edge21" class="edge">
<title>src/three&#45;bcf/topic/&#45;&gt;src/constants.ts</title>
<path fill="none" stroke="#000000" stroke-width="2" stroke-opacity="0.200000" d="M304.09,-227.5C304.09,-227.5 391.82,-227.5 391.82,-227.5"/>
<polygon fill="#000000" fill-opacity="0.200000" stroke="#000000" stroke-width="2" stroke-opacity="0.200000" points="391.82,-229.6 397.82,-227.5 391.82,-225.4 391.82,-229.6"/>
</g>
<!-- src/three&#45;bcf/xml.ts -->
<g id="node15" class="node">
<title>src/three&#45;bcf/xml.ts</title>
<g id="a_node15"><a xlink:href="src/three-bcf/xml.ts" xlink:title="xml.ts">
<path fill="#ddfeff" stroke="black" d="M376,-202C376,-202 334,-202 334,-202 331,-202 328,-199 328,-196 328,-196 328,-190 328,-190 328,-187 331,-184 334,-184 334,-184 376,-184 376,-184 379,-184 382,-187 382,-190 382,-190 382,-196 382,-196 382,-199 379,-202 376,-202"/>
<text text-anchor="start" x="343" y="-190.8" font-family="Helvetica,sans-Serif" font-size="9.00">xml.ts</text>
</a>
</g>
</g>
<!-- src/three&#45;bcf/topic/&#45;&gt;src/three&#45;bcf/xml.ts -->
<g id="edge23" class="edge">
<title>src/three&#45;bcf/topic/&#45;&gt;src/three&#45;bcf/xml.ts</title>
<path fill="none" stroke="#000000" stroke-width="2" stroke-opacity="0.200000" d="M304.28,-223C326.77,-223 355,-223 355,-223 355,-223 355,-208.16 355,-208.16"/>
<polygon fill="#000000" fill-opacity="0.200000" stroke="#000000" stroke-width="2" stroke-opacity="0.200000" points="357.1,-208.16 355,-202.16 352.9,-208.16 357.1,-208.16"/>
</g>
<!-- src/three/topic.ts&#45;&gt;src/types.ts -->
<g id="edge30" class="edge">
<title>src/three/topic.ts&#45;&gt;src/types.ts</title>
<path fill="none" stroke="#000000" stroke-width="2" stroke-opacity="0.200000" d="M304.31,-306C312.33,-306 319,-306 319,-306 319,-306 319,-135.67 319,-135.67 319,-135.67 321.71,-135.67 321.71,-135.67"/>
<polygon fill="#000000" fill-opacity="0.200000" stroke="#000000" stroke-width="2" stroke-opacity="0.200000" points="321.71,-137.77 327.71,-135.67 321.71,-133.57 321.71,-137.77"/>
</g>
<!-- src/three/topic.ts&#45;&gt;src/constants.ts -->
<g id="edge29" class="edge">
<title>src/three/topic.ts&#45;&gt;src/constants.ts</title>
<path fill="none" stroke="#000000" stroke-width="2" stroke-opacity="0.200000" d="M304.18,-312C348.39,-312 431,-312 431,-312 431,-312 431,-238.19 431,-238.19"/>
<polygon fill="#000000" fill-opacity="0.200000" stroke="#000000" stroke-width="2" stroke-opacity="0.200000" points="433.1,-238.19 431,-232.19 428.9,-238.19 433.1,-238.19"/>
</g>
<!-- src/core/index.ts -->
<g id="node9" class="node">
<title>src/core/index.ts</title>
<g id="a_node9"><a xlink:href="src/core/index.ts" xlink:title="index.ts">
<path fill="#ddfeff" stroke="black" d="M376,-42C376,-42 334,-42 334,-42 331,-42 328,-39 328,-36 328,-36 328,-30 328,-30 328,-27 331,-24 334,-24 334,-24 376,-24 376,-24 379,-24 382,-27 382,-30 382,-30 382,-36 382,-36 382,-39 379,-42 376,-42"/>
<text text-anchor="start" x="339" y="-30.8" font-family="Helvetica,sans-Serif" font-size="9.00">index.ts</text>
</a>
</g>
</g>
<!-- src/core/index.ts&#45;&gt;src/core/topic.ts -->
<g id="edge6" class="edge">
<title>src/core/index.ts&#45;&gt;src/core/topic.ts</title>
<path fill="none" stroke="#000000" stroke-width="2" stroke-opacity="0.200000" d="M382.01,-35.67C403.85,-35.67 431,-35.67 431,-35.67 431,-35.67 431,-35.89 431,-35.89"/>
<polygon fill="#000000" fill-opacity="0.200000" stroke="#000000" stroke-width="2" stroke-opacity="0.200000" points="428.9,-31.85 431,-37.85 433.1,-31.85 428.9,-31.85"/>
</g>
<!-- src/core/index.ts&#45;&gt;src/core/zod.ts -->
<g id="edge7" class="edge">
<title>src/core/index.ts&#45;&gt;src/core/zod.ts</title>
<path fill="none" stroke="#000000" stroke-width="2" stroke-opacity="0.200000" d="M382.15,-33.33C382.15,-33.33 469.78,-33.33 469.78,-33.33"/>
<polygon fill="#000000" fill-opacity="0.200000" stroke="#000000" stroke-width="2" stroke-opacity="0.200000" points="469.78,-35.43 475.78,-33.33 469.78,-31.23 469.78,-35.43"/>
</g>
<!-- src/index.ts -->
<g id="node11" class="node">
<title>src/index.ts</title>
<g id="a_node11"><a xlink:href="src/index.ts" xlink:title="index.ts">
<path fill="#ddfeff" stroke="black" d="M69.5,-124C69.5,-124 27.5,-124 27.5,-124 24.5,-124 21.5,-121 21.5,-118 21.5,-118 21.5,-112 21.5,-112 21.5,-109 24.5,-106 27.5,-106 27.5,-106 69.5,-106 69.5,-106 72.5,-106 75.5,-109 75.5,-112 75.5,-112 75.5,-118 75.5,-118 75.5,-121 72.5,-124 69.5,-124"/>
<text text-anchor="start" x="32.5" y="-112.8" font-family="Helvetica,sans-Serif" font-size="9.00">index.ts</text>
</a>
</g>
</g>
<!-- src/index.ts&#45;&gt;src/ThreeBCF.ts -->
<g id="edge12" class="edge">
<title>src/index.ts&#45;&gt;src/ThreeBCF.ts</title>
<path fill="none" stroke="#000000" stroke-width="2" stroke-opacity="0.200000" d="M75.68,-114C130.05,-114 247,-114 247,-114 247,-114 247,-106.09 247,-106.09"/>
<polygon fill="#000000" fill-opacity="0.200000" stroke="#000000" stroke-width="2" stroke-opacity="0.200000" points="249.1,-106.09 247,-100.09 244.9,-106.09 249.1,-106.09"/>
</g>
<!-- src/index.ts&#45;&gt;src/types.ts -->
<g id="edge13" class="edge">
<title>src/index.ts&#45;&gt;src/types.ts</title>
<path fill="none" stroke="#000000" stroke-width="2" stroke-opacity="0.200000" d="M75.7,-118C150.71,-118 355,-118 355,-118 355,-118 355,-118.17 355,-118.17"/>
<polygon fill="#000000" fill-opacity="0.200000" stroke="#000000" stroke-width="2" stroke-opacity="0.200000" points="352.9,-113.72 355,-119.72 357.1,-113.72 352.9,-113.72"/>
</g>
<!-- src/index.ts&#45;&gt;src/constants.ts -->
<g id="edge9" class="edge">
<title>src/index.ts&#45;&gt;src/constants.ts</title>
<path fill="none" stroke="#000000" stroke-width="2" stroke-opacity="0.200000" d="M75.75,-116C163.95,-116 436,-116 436,-116 436,-116 436,-207.88 436,-207.88"/>
<polygon fill="#000000" fill-opacity="0.200000" stroke="#000000" stroke-width="2" stroke-opacity="0.200000" points="433.9,-207.88 436,-213.88 438.1,-207.88 433.9,-207.88"/>
</g>
<!-- src/index.ts&#45;&gt;src/core/index.ts -->
<g id="edge10" class="edge">
<title>src/index.ts&#45;&gt;src/core/index.ts</title>
<path fill="none" stroke="#000000" stroke-width="2" stroke-opacity="0.200000" d="M75.63,-112C107.47,-112 156,-112 156,-112 156,-112 156,-33 156,-33 156,-33 321.75,-33 321.75,-33"/>
<polygon fill="#000000" fill-opacity="0.200000" stroke="#000000" stroke-width="2" stroke-opacity="0.200000" points="321.75,-35.1 327.75,-33 321.75,-30.9 321.75,-35.1"/>
</g>
<!-- src/three/index.ts -->
<g id="node12" class="node">
<title>src/three/index.ts</title>
<g id="a_node12"><a xlink:href="src/three/index.ts" xlink:title="index.ts">
<path fill="#ddfeff" stroke="black" d="M218,-318C218,-318 176,-318 176,-318 173,-318 170,-315 170,-312 170,-312 170,-306 170,-306 170,-303 173,-300 176,-300 176,-300 218,-300 218,-300 221,-300 224,-303 224,-306 224,-306 224,-312 224,-312 224,-315 221,-318 218,-318"/>
<text text-anchor="start" x="181" y="-306.8" font-family="Helvetica,sans-Serif" font-size="9.00">index.ts</text>
</a>
</g>
</g>
<!-- src/index.ts&#45;&gt;src/three/index.ts -->
<g id="edge11" class="edge">
<title>src/index.ts&#45;&gt;src/three/index.ts</title>
<path fill="none" stroke="#000000" stroke-width="2" stroke-opacity="0.200000" d="M49,-124.1C49,-162.45 49,-309 49,-309 49,-309 163.85,-309 163.85,-309"/>
<polygon fill="#000000" fill-opacity="0.200000" stroke="#000000" stroke-width="2" stroke-opacity="0.200000" points="163.85,-311.1 169.85,-309 163.85,-306.9 163.85,-311.1"/>
</g>
<!-- src/worker/index.ts -->
<g id="node13" class="node">
<title>src/worker/index.ts</title>
<g id="a_node13"><a xlink:href="src/worker/index.ts" xlink:title="index.ts">
<path fill="#ddfeff" stroke="black" d="M145,-102C145,-102 103,-102 103,-102 100,-102 97,-99 97,-96 97,-96 97,-90 97,-90 97,-87 100,-84 103,-84 103,-84 145,-84 145,-84 148,-84 151,-87 151,-90 151,-90 151,-96 151,-96 151,-99 148,-102 145,-102"/>
<text text-anchor="start" x="108" y="-90.8" font-family="Helvetica,sans-Serif" font-size="9.00">index.ts</text>
</a>
</g>
</g>
<!-- src/index.ts&#45;&gt;src/worker/index.ts -->
<g id="edge14" class="edge">
<title>src/index.ts&#45;&gt;src/worker/index.ts</title>
<path fill="none" stroke="#000000" stroke-width="2" stroke-opacity="0.200000" d="M75.55,-110C93.96,-110 115,-110 115,-110 115,-110 115,-108.3 115,-108.3"/>
<polygon fill="#000000" fill-opacity="0.200000" stroke="#000000" stroke-width="2" stroke-opacity="0.200000" points="117.1,-108.3 115,-102.3 112.9,-108.3 117.1,-108.3"/>
</g>
<!-- src/three/index.ts&#45;&gt;src/three/topic.ts -->
<g id="edge28" class="edge">
<title>src/three/index.ts&#45;&gt;src/three/topic.ts</title>
<path fill="none" stroke="#000000" stroke-width="2" stroke-opacity="0.200000" d="M224.08,-309C224.08,-309 243.94,-309 243.94,-309"/>
<polygon fill="#000000" fill-opacity="0.200000" stroke="#000000" stroke-width="2" stroke-opacity="0.200000" points="243.94,-311.1 249.94,-309 243.94,-306.9 243.94,-311.1"/>
</g>
<!-- src/three&#45;bcf/zip.ts -->
<g id="node18" class="node">
<title>src/three&#45;bcf/zip.ts</title>
<g id="a_node18"><a xlink:href="src/three-bcf/zip.ts" xlink:title="zip.ts">
<path fill="#ddfeff" stroke="black" d="M218,-172C218,-172 176,-172 176,-172 173,-172 170,-169 170,-166 170,-166 170,-160 170,-160 170,-157 173,-154 176,-154 176,-154 218,-154 218,-154 221,-154 224,-157 224,-160 224,-160 224,-166 224,-166 224,-169 221,-172 218,-172"/>
<text text-anchor="start" x="186" y="-160.8" font-family="Helvetica,sans-Serif" font-size="9.00">zip.ts</text>
</a>
</g>
</g>
<!-- src/worker/index.ts&#45;&gt;src/three&#45;bcf/zip.ts -->
<g id="edge33" class="edge">
<title>src/worker/index.ts&#45;&gt;src/three&#45;bcf/zip.ts</title>
<path fill="none" stroke="#000000" stroke-width="2" stroke-opacity="0.200000" d="M133,-102.25C133,-121.89 133,-166 133,-166 133,-166 163.86,-166 163.86,-166"/>
<polygon fill="#000000" fill-opacity="0.200000" stroke="#000000" stroke-width="2" stroke-opacity="0.200000" points="163.86,-168.1 169.86,-166 163.86,-163.9 163.86,-168.1"/>
</g>
<!-- src/worker/utils.ts -->
<g id="node19" class="node">
<title>src/worker/utils.ts</title>
<g id="a_node19"><a xlink:href="src/worker/utils.ts" xlink:title="utils.ts">
<path fill="#ddfeff" stroke="black" d="M218,-72C218,-72 176,-72 176,-72 173,-72 170,-69 170,-66 170,-66 170,-60 170,-60 170,-57 173,-54 176,-54 176,-54 218,-54 218,-54 221,-54 224,-57 224,-60 224,-60 224,-66 224,-66 224,-69 221,-72 218,-72"/>
<text text-anchor="start" x="184" y="-60.8" font-family="Helvetica,sans-Serif" font-size="9.00">utils.ts</text>
</a>
</g>
</g>
<!-- src/worker/index.ts&#45;&gt;src/worker/utils.ts -->
<g id="edge34" class="edge">
<title>src/worker/index.ts&#45;&gt;src/worker/utils.ts</title>
<path fill="none" stroke="#000000" stroke-width="2" stroke-opacity="0.200000" d="M124,-83.87C124,-74.72 124,-62 124,-62 124,-62 163.82,-62 163.82,-62"/>
<polygon fill="#000000" fill-opacity="0.200000" stroke="#000000" stroke-width="2" stroke-opacity="0.200000" points="163.82,-64.1 169.82,-62 163.82,-59.9 163.82,-64.1"/>
</g>
<!-- src/worker/worker.ts -->
<g id="node21" class="node">
<title>src/worker/worker.ts</title>
<g id="a_node21"><a xlink:href="src/worker/worker.ts" xlink:title="worker.ts">
<path fill="#ddfeff" stroke="black" d="M218,-102C218,-102 176,-102 176,-102 173,-102 170,-99 170,-96 170,-96 170,-90 170,-90 170,-87 173,-84 176,-84 176,-84 218,-84 218,-84 221,-84 224,-87 224,-90 224,-90 224,-96 224,-96 224,-99 221,-102 218,-102"/>
<text text-anchor="start" x="178.5" y="-90.8" font-family="Helvetica,sans-Serif" font-size="9.00">worker.ts</text>
</a>
</g>
</g>
<!-- src/worker/index.ts&#45;&gt;src/worker/worker.ts -->
<g id="edge35" class="edge">
<title>src/worker/index.ts&#45;&gt;src/worker/worker.ts</title>
<path fill="none" stroke="#000000" stroke-width="2" stroke-opacity="0.200000" d="M151.18,-93C151.18,-93 163.55,-93 163.55,-93"/>
<polygon fill="#000000" fill-opacity="0.200000" stroke="#000000" stroke-width="2" stroke-opacity="0.200000" points="163.55,-95.1 169.55,-93 163.55,-90.9 163.55,-95.1"/>
</g>
<!-- src/three&#45;bcf/BCF.ts -->
<g id="node14" class="node">
<title>src/three&#45;bcf/BCF.ts</title>
<g id="a_node14"><a xlink:href="src/three-bcf/BCF.ts" xlink:title="BCF.ts">
<path fill="#ddfeff" stroke="black" d="M298,-202C298,-202 256,-202 256,-202 253,-202 250,-199 250,-196 250,-196 250,-190 250,-190 250,-187 253,-184 256,-184 256,-184 298,-184 298,-184 301,-184 304,-187 304,-190 304,-190 304,-196 304,-196 304,-199 301,-202 298,-202"/>
<text text-anchor="start" x="263" y="-190.8" font-family="Helvetica,sans-Serif" font-size="9.00">BCF.ts</text>
</a>
</g>
</g>
<!-- src/three&#45;bcf/BCF.ts&#45;&gt;src/three&#45;bcf/xml.ts -->
<g id="edge15" class="edge">
<title>src/three&#45;bcf/BCF.ts&#45;&gt;src/three&#45;bcf/xml.ts</title>
<path fill="none" stroke="#000000" stroke-width="2" stroke-opacity="0.200000" d="M304.28,-193C304.28,-193 321.87,-193 321.87,-193"/>
<polygon fill="#000000" fill-opacity="0.200000" stroke="#000000" stroke-width="2" stroke-opacity="0.200000" points="321.87,-195.1 327.87,-193 321.87,-190.9 321.87,-195.1"/>
</g>
<!-- src/three&#45;bcf/index.ts -->
<g id="node16" class="node">
<title>src/three&#45;bcf/index.ts</title>
<g id="a_node16"><a xlink:href="src/three-bcf/index.ts" xlink:title="index.ts">
<path fill="#ddfeff" stroke="black" d="M218,-202C218,-202 176,-202 176,-202 173,-202 170,-199 170,-196 170,-196 170,-190 170,-190 170,-187 173,-184 176,-184 176,-184 218,-184 218,-184 221,-184 224,-187 224,-190 224,-190 224,-196 224,-196 224,-199 221,-202 218,-202"/>
<text text-anchor="start" x="181" y="-190.8" font-family="Helvetica,sans-Serif" font-size="9.00">index.ts</text>
</a>
</g>
</g>
<!-- src/three&#45;bcf/index.ts&#45;&gt;src/three&#45;bcf/topic/ -->
<g id="edge18" class="edge">
<title>src/three&#45;bcf/index.ts&#45;&gt;src/three&#45;bcf/topic/</title>
<path fill="none" stroke="#000000" stroke-width="2" stroke-opacity="0.200000" d="M197,-202.02C197,-211.79 197,-226 197,-226 197,-226 243.92,-226 243.92,-226"/>
<polygon fill="#000000" fill-opacity="0.200000" stroke="#000000" stroke-width="2" stroke-opacity="0.200000" points="243.92,-228.1 249.92,-226 243.92,-223.9 243.92,-228.1"/>
</g>
<!-- src/three&#45;bcf/index.ts&#45;&gt;src/three&#45;bcf/BCF.ts -->
<g id="edge16" class="edge">
<title>src/three&#45;bcf/index.ts&#45;&gt;src/three&#45;bcf/BCF.ts</title>
<path fill="none" stroke="#000000" stroke-width="2" stroke-opacity="0.200000" d="M224.08,-196C224.08,-196 243.94,-196 243.94,-196"/>
<polygon fill="#000000" fill-opacity="0.200000" stroke="#000000" stroke-width="2" stroke-opacity="0.200000" points="243.94,-198.1 249.94,-196 243.94,-193.9 243.94,-198.1"/>
</g>
<!-- src/three&#45;bcf/root/ -->
<g id="node17" class="node">
<title>src/three&#45;bcf/root/</title>
<g id="a_node17"><a xlink:href="src/three-bcf/root/" xlink:title="root">
<polygon fill="#ffffcc" stroke="black" points="304,-172 252,-172 250,-170 250,-154 302,-154 304,-156 304,-172"/>
<polyline fill="none" stroke="black" points="302,-170 250,-170 "/>
<polyline fill="none" stroke="black" points="302,-170 302,-154 "/>
<polyline fill="none" stroke="black" points="302,-170 304,-172 "/>
<text text-anchor="start" x="269" y="-160.8" font-family="Helvetica,sans-Serif" font-size="9.00">root</text>
</a>
</g>
</g>
<!-- src/three&#45;bcf/index.ts&#45;&gt;src/three&#45;bcf/root/ -->
<g id="edge17" class="edge">
<title>src/three&#45;bcf/index.ts&#45;&gt;src/three&#45;bcf/root/</title>
<path fill="none" stroke="#000000" stroke-width="2" stroke-opacity="0.200000" d="M224.48,-190C232.9,-190 240,-190 240,-190 240,-190 240,-167.5 240,-167.5 240,-167.5 243.72,-167.5 243.72,-167.5"/>
<polygon fill="#000000" fill-opacity="0.200000" stroke="#000000" stroke-width="2" stroke-opacity="0.200000" points="243.72,-169.6 249.72,-167.5 243.72,-165.4 243.72,-169.6"/>
</g>
<!-- src/three&#45;bcf/root/&#45;&gt;src/constants.ts -->
<g id="edge19" class="edge">
<title>src/three&#45;bcf/root/&#45;&gt;src/constants.ts</title>
<path fill="none" stroke="#000000" stroke-width="2" stroke-opacity="0.200000" d="M304.26,-160C344.48,-160 415,-160 415,-160 415,-160 415,-207.97 415,-207.97"/>
<polygon fill="#000000" fill-opacity="0.200000" stroke="#000000" stroke-width="2" stroke-opacity="0.200000" points="412.9,-207.97 415,-213.97 417.1,-207.97 412.9,-207.97"/>
</g>
<!-- src/three&#45;bcf/root/&#45;&gt;src/three&#45;bcf/xml.ts -->
<g id="edge20" class="edge">
<title>src/three&#45;bcf/root/&#45;&gt;src/three&#45;bcf/xml.ts</title>
<path fill="none" stroke="#000000" stroke-width="2" stroke-opacity="0.200000" d="M304.28,-166C326.77,-166 355,-166 355,-166 355,-166 355,-177.86 355,-177.86"/>
<polygon fill="#000000" fill-opacity="0.200000" stroke="#000000" stroke-width="2" stroke-opacity="0.200000" points="352.9,-177.86 355,-183.86 357.1,-177.86 352.9,-177.86"/>
</g>
<!-- src/three&#45;bcf/zip.ts&#45;&gt;src/types.ts -->
<g id="edge24" class="edge">
<title>src/three&#45;bcf/zip.ts&#45;&gt;src/types.ts</title>
<path fill="none" stroke="#000000" stroke-width="2" stroke-opacity="0.200000" d="M211,-153.92C211,-144.46 211,-131 211,-131 211,-131 321.91,-131 321.91,-131"/>
<polygon fill="#000000" fill-opacity="0.200000" stroke="#000000" stroke-width="2" stroke-opacity="0.200000" points="321.91,-133.1 327.91,-131 321.91,-128.9 321.91,-133.1"/>
</g>
<!-- src/three&#45;bcf/zip.ts&#45;&gt;src/three&#45;bcf/topic/ -->
<g id="edge27" class="edge">
<title>src/three&#45;bcf/zip.ts&#45;&gt;src/three&#45;bcf/topic/</title>
<path fill="none" stroke="#000000" stroke-width="2" stroke-opacity="0.200000" d="M224.34,-163C231.38,-163 237,-163 237,-163 237,-163 237,-220 237,-220 237,-220 243.66,-220 243.66,-220"/>
<polygon fill="#000000" fill-opacity="0.200000" stroke="#000000" stroke-width="2" stroke-opacity="0.200000" points="243.66,-222.1 249.66,-220 243.66,-217.9 243.66,-222.1"/>
</g>
<!-- src/three&#45;bcf/zip.ts&#45;&gt;src/three&#45;bcf/root/ -->
<g id="edge26" class="edge">
<title>src/three&#45;bcf/zip.ts&#45;&gt;src/three&#45;bcf/root/</title>
<path fill="none" stroke="#000000" stroke-width="2" stroke-opacity="0.200000" d="M224.08,-158.5C224.08,-158.5 243.94,-158.5 243.94,-158.5"/>
<polygon fill="#000000" fill-opacity="0.200000" stroke="#000000" stroke-width="2" stroke-opacity="0.200000" points="243.94,-160.6 249.94,-158.5 243.94,-156.4 243.94,-160.6"/>
</g>
<!-- src/three&#45;bcf/zip.ts&#45;&gt;src/worker/utils.ts -->
<g id="edge25" class="edge">
<title>src/three&#45;bcf/zip.ts&#45;&gt;src/worker/utils.ts</title>
<path fill="none" stroke="#000000" stroke-width="2" stroke-opacity="0.200000" d="M169.72,-160C164.18,-160 160,-160 160,-160 160,-160 160,-67 160,-67 160,-67 163.72,-67 163.72,-67"/>
<polygon fill="#000000" fill-opacity="0.200000" stroke="#000000" stroke-width="2" stroke-opacity="0.200000" points="163.72,-69.1 169.72,-67 163.72,-64.9 163.72,-69.1"/>
</g>
<!-- src/vite&#45;env.d.ts -->
<g id="node20" class="node">
<title>src/vite&#45;env.d.ts</title>
<g id="a_node20"><a xlink:href="src/vite-env.d.ts" xlink:title="vite&#45;env.d.ts">
<path fill="#ccffcc" stroke="black" d="M75,-75C75,-75 22,-75 22,-75 19,-75 16,-72 16,-69 16,-69 16,-63 16,-63 16,-60 19,-57 22,-57 22,-57 75,-57 75,-57 78,-57 81,-60 81,-63 81,-63 81,-69 81,-69 81,-72 78,-75 75,-75"/>
<text text-anchor="start" x="24" y="-63.8" font-family="Helvetica,sans-Serif" font-size="9.00">vite&#45;env.d.ts</text>
</a>
</g>
</g>
<!-- src/worker/worker.ts&#45;&gt;src/types.ts -->
<g id="edge37" class="edge">
<title>src/worker/worker.ts&#45;&gt;src/types.ts</title>
<path fill="none" stroke="#000000" stroke-width="2" stroke-opacity="0.200000" d="M197,-102C197,-112.57 197,-128.67 197,-128.67 197,-128.67 321.84,-128.67 321.84,-128.67"/>
<polygon fill="#000000" fill-opacity="0.200000" stroke="#000000" stroke-width="2" stroke-opacity="0.200000" points="321.84,-130.77 327.84,-128.67 321.84,-126.57 321.84,-130.77"/>
</g>
<!-- src/worker/worker.ts&#45;&gt;src/three&#45;bcf/zip.ts -->
<g id="edge36" class="edge">
<title>src/worker/worker.ts&#45;&gt;src/three&#45;bcf/zip.ts</title>
<path fill="none" stroke="#000000" stroke-width="2" stroke-opacity="0.200000" d="M184,-102.15C184,-102.15 184,-147.62 184,-147.62"/>
<polygon fill="#000000" fill-opacity="0.200000" stroke="#000000" stroke-width="2" stroke-opacity="0.200000" points="181.9,-147.62 184,-153.62 186.1,-147.62 181.9,-147.62"/>
</g>
</g>
</svg>
